<svg width="100" height="100" viewBox="0 0 100 100" fill="none" xmlns="http://www.w3.org/2000/svg">
<path d="M94.7528 53.4825C92.8483 78.2976 71.4087 96.8268 46.897 94.9047C22.3853 92.9826 4.02955 71.3327 5.93414 46.5176C7.83873 21.7024 29.2783 3.17318 53.79 5.09532C78.3017 7.01745 96.6574 28.6673 94.7528 53.4825Z" stroke="url(#paint0_linear_126_1215)" stroke-width="3"/>
<ellipse cx="6.1333" cy="55.6497" rx="6.1333" ry="6.1995" fill="#0071FF"/>
<path d="M62.0975 40.1164C62.0975 38.8057 61.0331 37.75 59.7311 37.75H42.2688C40.958 37.75 39.9023 38.8057 39.9023 40.1164V56.7782C39.9023 58.0801 40.958 59.1446 42.2688 59.1446H56.8017L56.3002 57.2357L62.0975 62.25V40.1164ZM54.5584 53.7256L53.8018 52.7315C53.8018 52.7315 55.7636 52.0718 55.7811 51.4032C55.7811 51.4032 53.4235 52.7931 50.9955 52.7139C48.5675 52.7931 46.2099 51.4032 46.2099 51.4032C46.2363 52.0718 48.198 52.7315 48.198 52.7315L47.4415 53.7256C45.6029 54.0511 43.6235 52.0277 43.6235 52.0277C43.5268 48.2098 45.5589 44.6294 45.5589 44.6294C46.7377 43.9696 48.805 43.5913 48.805 43.5913L49.069 43.7936C49.069 43.7936 46.4474 44.4886 46.3418 45.1484C46.3418 45.1484 48.4356 44.0487 50.9955 44.1367C53.5643 44.0487 55.6492 45.1484 55.6492 45.1484C55.5436 44.4886 52.9309 43.7936 52.9309 43.7936L53.186 43.5913C53.186 43.5913 55.2621 43.9696 56.4409 44.6294C56.4409 44.6294 58.4643 48.2098 58.3763 52.0277C58.3764 52.0277 56.397 54.0511 54.5584 53.7256V53.7256Z" fill="#999A9D"/>
<path d="M48.7345 48.1836C48.0748 48.1836 47.5381 48.7202 47.5381 49.3888C47.5381 50.0486 48.0748 50.594 48.7345 50.594C49.4031 50.594 49.9398 50.0486 49.9398 49.3888C49.9398 48.7202 49.4031 48.1836 48.7345 48.1836V48.1836Z" fill="#999A9D"/>
<path d="M53.2565 48.1836C52.5967 48.1836 52.0601 48.7202 52.0601 49.3888C52.0601 50.0486 52.5967 50.594 53.2565 50.594C53.925 50.594 54.4617 50.0486 54.4617 49.3888C54.4617 48.7202 53.925 48.1836 53.2565 48.1836V48.1836Z" fill="#999A9D"/>
<defs>
<linearGradient id="paint0_linear_126_1215" x1="50.3435" y1="13.1153" x2="45.2455" y2="91.1013" gradientUnits="userSpaceOnUse">
<stop stop-color="#B0D3FF"/>
<stop offset="0.632687" stop-color="#D8E9FF" stop-opacity="0.1"/>
<stop offset="1" stop-color="#D8E9FF" stop-opacity="0"/>
</linearGradient>
</defs>
</svg>
