<svg width="100" height="100" viewBox="0 0 100 100" fill="none" xmlns="http://www.w3.org/2000/svg">
<path d="M94.7528 53.4825C92.8483 78.2976 71.4087 96.8268 46.897 94.9047C22.3853 92.9826 4.02955 71.3327 5.93414 46.5176C7.83873 21.7024 29.2783 3.17318 53.79 5.09532C78.3017 7.01745 96.6574 28.6673 94.7528 53.4825Z" stroke="url(#paint0_linear_126_1218)" stroke-width="3"/>
<ellipse cx="6.1333" cy="55.6497" rx="6.1333" ry="6.1995" fill="#0071FF"/>
<path d="M51 36C43.3104 36 37 42.3104 37 50C37 56.5619 41.6044 62.5226 47.7188 64V59.3682C47.1129 59.5009 46.5554 59.5047 45.9386 59.3229C45.1113 59.0788 44.439 58.5276 43.94 57.6872C43.6219 57.1506 43.0581 56.5687 42.47 56.6114L42.3258 54.9772C43.5975 54.8683 44.6977 55.752 45.3507 56.8492C45.6408 57.3371 45.9747 57.6231 46.4033 57.7496C46.8175 57.8716 47.2622 57.813 47.7805 57.63C47.9106 56.5924 48.3859 56.204 48.745 55.6572V55.6563C45.0984 55.1124 43.6452 53.1779 43.0684 51.6509C42.304 49.6234 42.7142 47.0905 44.0658 45.4898C44.0921 45.4586 44.1395 45.377 44.1211 45.3199C43.5014 43.448 44.2566 41.8994 44.2843 41.7351C44.9995 41.9466 45.1158 41.5224 47.3911 42.9047L47.7843 43.141C47.9488 43.239 47.8971 43.1831 48.0616 43.1707C49.0116 42.9126 50.0131 42.7701 50.9998 42.7573C51.994 42.7701 52.989 42.9126 53.9783 43.1812L54.1057 43.194C54.0945 43.1923 54.1403 43.1859 54.2169 43.1401C57.0592 41.4185 56.9571 41.9812 57.7193 41.7334C57.7469 41.8979 58.492 43.4717 57.8789 45.3199C57.7962 45.5746 60.343 47.9067 58.9314 51.6502C58.3546 53.1779 56.9016 55.1124 53.255 55.6563V55.6572C53.7224 56.3696 54.284 56.7486 54.281 58.2183V64C60.3956 62.5226 64.9998 56.5619 64.9998 50C65 42.3104 58.6896 36 51 36V36Z" fill="#999A9D"/>
<defs>
<linearGradient id="paint0_linear_126_1218" x1="50.3435" y1="13.1153" x2="45.2455" y2="91.1013" gradientUnits="userSpaceOnUse">
<stop stop-color="#B0D3FF"/>
<stop offset="0.632687" stop-color="#D8E9FF" stop-opacity="0.1"/>
<stop offset="1" stop-color="#D8E9FF" stop-opacity="0"/>
</linearGradient>
</defs>
</svg>
