<svg width="100" height="100" viewBox="0 0 100 100" fill="none" xmlns="http://www.w3.org/2000/svg">
<path d="M94.7528 46.5175C92.8483 21.7024 71.4087 3.17318 46.897 5.09531C22.3853 7.01744 4.02955 28.6673 5.93414 53.4824C7.83873 78.2976 29.2783 96.8268 53.79 94.9047C78.3017 92.9826 96.6574 71.3327 94.7528 46.5175Z" stroke="url(#paint0_linear_126_1233)" stroke-width="3"/>
<ellipse rx="6.1333" ry="6.1995" transform="matrix(1 0 0 -1 6.1333 44.3503)" fill="#0071FF"/>
<path d="M58 36H44C40.1503 36 37 39.149 37 43V57C37 60.8497 40.1503 64 44 64H58C61.8497 64 65 60.8497 65 57V43C65 39.149 61.8497 36 58 36ZM51 55.8331C47.7779 55.8331 45.1666 53.2207 45.1666 50C45.1666 46.7779 47.7779 44.1666 51 44.1666C54.2207 44.1666 56.8334 46.7779 56.8334 50C56.8334 53.2207 54.2207 55.8331 51 55.8331ZM58.5834 44.1666C57.616 44.1666 56.8334 43.3829 56.8334 42.4166C56.8334 41.4502 57.616 40.6666 58.5834 40.6666C59.5509 40.6666 60.3334 41.4502 60.3334 42.4166C60.3334 43.3829 59.5509 44.1666 58.5834 44.1666Z" fill="#999A9D"/>
<defs>
<linearGradient id="paint0_linear_126_1233" x1="50.3435" y1="86.8847" x2="45.2455" y2="8.89872" gradientUnits="userSpaceOnUse">
<stop stop-color="#B0D3FF"/>
<stop offset="0.632687" stop-color="#D8E9FF" stop-opacity="0.1"/>
<stop offset="1" stop-color="#D8E9FF" stop-opacity="0"/>
</linearGradient>
</defs>
</svg>
