<svg width="100" height="100" viewBox="0 0 100 100" fill="none" xmlns="http://www.w3.org/2000/svg">
<path d="M94.7528 46.5175C92.8483 21.7024 71.4087 3.17318 46.897 5.09531C22.3853 7.01744 4.02955 28.6673 5.93414 53.4824C7.83873 78.2976 29.2783 96.8268 53.79 94.9047C78.3017 92.9826 96.6574 71.3327 94.7528 46.5175Z" stroke="url(#paint0_linear_126_1230)" stroke-width="3"/>
<ellipse rx="6.1333" ry="6.1995" transform="matrix(1 0 0 -1 6.1333 44.3503)" fill="#0071FF"/>
<path d="M62.2002 50.1682C62.1442 48.8242 61.0242 47.7602 59.6522 47.7882C59.0362 47.8162 58.4762 48.0682 58.0562 48.4602C56.1522 47.1442 53.8842 46.4442 51.5602 46.3882L52.6522 41.1522L56.2642 41.8802C56.3762 42.8042 57.1882 43.4762 58.1122 43.3642C59.0362 43.2522 59.7082 42.4402 59.5962 41.5162C59.4842 40.5922 58.6722 39.9202 57.7482 40.0322C57.2162 40.0882 56.7402 40.3962 56.4882 40.8442L52.3722 40.0322C52.0922 39.9762 51.8122 40.1442 51.7562 40.4242L50.5242 46.2762C48.1722 46.3042 45.9042 47.0322 43.9442 48.3482C42.9642 47.4242 41.3962 47.4522 40.4722 48.4602C39.5482 49.4402 39.5762 51.0082 40.5842 51.9322C40.7802 52.1002 41.0042 52.2682 41.2562 52.3802C41.2282 52.6322 41.2282 52.8842 41.2562 53.1082C41.2562 56.8882 45.6522 59.9682 51.0842 59.9682C56.5162 59.9682 60.9122 56.9162 60.9122 53.1082C60.9402 52.8562 60.9402 52.6042 60.9122 52.3802C61.6962 51.9882 62.2282 51.1202 62.2002 50.1682ZM45.3162 51.8762C45.3162 50.9522 46.0722 50.1962 46.9962 50.1962C47.9202 50.1962 48.6762 50.9522 48.6762 51.8762C48.6762 52.8002 47.9202 53.5562 46.9962 53.5562C46.0722 53.5562 45.3162 52.8002 45.3162 51.8762ZM55.1162 56.5242C53.9122 57.4202 52.4562 57.8962 50.9722 57.8122C49.4882 57.8682 48.0042 57.4202 46.8282 56.5242C46.6602 56.3282 46.6882 56.0482 46.8842 55.8802C47.0522 55.7402 47.2762 55.7402 47.4722 55.8802C48.4802 56.6082 49.7122 57.0002 50.9722 56.9442C52.2322 57.0002 53.4642 56.6642 54.5002 55.9082C54.6962 55.7402 54.9762 55.7402 55.1722 55.9082C55.3402 56.1042 55.3402 56.3842 55.1722 56.5802V56.5242H55.1162ZM54.8362 53.6402C53.9122 53.6402 53.1562 52.8842 53.1562 51.9602C53.1562 51.0362 53.9122 50.2802 54.8362 50.2802C55.7602 50.2802 56.5162 51.0362 56.5162 51.9602C56.5442 52.8842 55.8442 53.6682 54.8922 53.6962C54.8642 53.6962 54.8362 53.6962 54.8082 53.6962L54.8362 53.6402Z" fill="#999A9D"/>
<defs>
<linearGradient id="paint0_linear_126_1230" x1="50.3435" y1="86.8847" x2="45.2455" y2="8.89872" gradientUnits="userSpaceOnUse">
<stop stop-color="#B0D3FF"/>
<stop offset="0.632687" stop-color="#D8E9FF" stop-opacity="0.1"/>
<stop offset="1" stop-color="#D8E9FF" stop-opacity="0"/>
</linearGradient>
</defs>
</svg>
