<svg width="100" height="100" viewBox="0 0 100 100" fill="none" xmlns="http://www.w3.org/2000/svg">
<path d="M94.7528 46.5175C92.8483 21.7024 71.4087 3.17318 46.897 5.09531C22.3853 7.01744 4.02955 28.6673 5.93414 53.4824C7.83873 78.2976 29.2783 96.8268 53.79 94.9047C78.3017 92.9826 96.6574 71.3327 94.7528 46.5175Z" stroke="url(#paint0_linear_126_1227)" stroke-width="3"/>
<ellipse rx="6.1333" ry="6.1995" transform="matrix(1 0 0 -1 6.1333 44.3503)" fill="#0071FF"/>
<g clip-path="url(#clip0_126_1227)">
<path d="M65 36L37 51.75L45.9483 55.0642L59.7501 42.125L49.252 56.2878L49.2605 56.291L49.25 56.2878V64.0001L54.2682 58.1456L60.6251 60.5001L65 36Z" fill="#999A9D"/>
</g>
<defs>
<linearGradient id="paint0_linear_126_1227" x1="50.3435" y1="86.8847" x2="45.2455" y2="8.89872" gradientUnits="userSpaceOnUse">
<stop stop-color="#B0D3FF"/>
<stop offset="0.632687" stop-color="#D8E9FF" stop-opacity="0.1"/>
<stop offset="1" stop-color="#D8E9FF" stop-opacity="0"/>
</linearGradient>
<clipPath id="clip0_126_1227">
<rect width="28" height="28" fill="white" transform="translate(37 36)"/>
</clipPath>
</defs>
</svg>
