<svg width="100" height="100" viewBox="0 0 100 100" fill="none" xmlns="http://www.w3.org/2000/svg">
<path d="M94.7528 53.4825C92.8483 78.2976 71.4087 96.8268 46.897 94.9047C22.3853 92.9826 4.02955 71.3327 5.93414 46.5176C7.83873 21.7024 29.2783 3.17318 53.79 5.09532C78.3017 7.01745 96.6574 28.6673 94.7528 53.4825Z" stroke="url(#paint0_linear_126_1209)" stroke-width="3"/>
<ellipse cx="6.1333" cy="55.6497" rx="6.1333" ry="6.1995" fill="#0071FF"/>
<path d="M62.172 43.0559C61.332 43.4199 60.464 43.6719 59.54 43.7839C60.492 43.2239 61.22 42.3279 61.556 41.2359C60.66 41.7679 59.68 42.1319 58.644 42.3559C57.804 41.4599 56.6 40.8999 55.284 40.8999C52.736 40.8999 50.692 42.9719 50.692 45.4919C50.692 45.8559 50.72 46.1919 50.804 46.5279C46.996 46.3599 43.636 44.5119 41.368 41.7399C39.744 44.6519 41.564 47.0599 42.768 47.8719C42.04 47.8719 41.312 47.6479 40.696 47.3119C40.696 49.5799 42.292 51.4559 44.364 51.8759C43.916 52.0159 42.908 52.0999 42.292 51.9599C42.88 53.7799 44.588 55.1239 46.576 55.1519C45.008 56.3839 42.712 57.3639 39.772 57.0559C41.816 58.3719 44.224 59.1279 46.828 59.1279C55.284 59.1279 59.876 52.1279 59.876 46.0799C59.876 45.8839 59.876 45.6879 59.848 45.4919C60.8 44.7919 61.584 43.9799 62.172 43.0559Z" fill="#999A9D"/>
<defs>
<linearGradient id="paint0_linear_126_1209" x1="50.3435" y1="13.1153" x2="45.2455" y2="91.1013" gradientUnits="userSpaceOnUse">
<stop stop-color="#B0D3FF"/>
<stop offset="0.632687" stop-color="#D8E9FF" stop-opacity="0.1"/>
<stop offset="1" stop-color="#D8E9FF" stop-opacity="0"/>
</linearGradient>
</defs>
</svg>
