<svg width="100" height="100" viewBox="0 0 100 100" fill="none" xmlns="http://www.w3.org/2000/svg">
<path d="M94.7528 53.4825C92.8483 78.2976 71.4087 96.8268 46.897 94.9047C22.3853 92.9826 4.02955 71.3327 5.93414 46.5176C7.83873 21.7024 29.2783 3.17318 53.79 5.09532C78.3017 7.01745 96.6574 28.6673 94.7528 53.4825Z" stroke="url(#paint0_linear_126_1221)" stroke-width="3"/>
<ellipse cx="6.1333" cy="55.6497" rx="6.1333" ry="6.1995" fill="#0071FF"/>
<path d="M63.5704 43.4389C63.2679 42.3143 62.3813 41.4278 61.2569 41.125C59.2027 40.563 50.986 40.563 50.986 40.563C50.986 40.563 42.7696 40.563 40.7154 41.1037C39.6127 41.4062 38.7044 42.3145 38.4019 43.4389C37.8613 45.4929 37.8613 49.7526 37.8613 49.7526C37.8613 49.7526 37.8613 54.0337 38.4019 56.0662C38.7047 57.1906 39.591 58.0771 40.7156 58.3799C42.7912 58.9421 50.9863 58.9421 50.9863 58.9421C50.9863 58.9421 59.2027 58.9421 61.2569 58.4014C62.3815 58.0987 63.2679 57.2123 63.5707 56.0879C64.1112 54.0337 64.1112 49.7742 64.1112 49.7742C64.1112 49.7742 64.1328 45.4929 63.5704 43.4389V43.4389ZM48.37 53.6878V45.8173L55.2026 49.7526L48.37 53.6878Z" fill="#999A9D"/>
<defs>
<linearGradient id="paint0_linear_126_1221" x1="50.3435" y1="13.1153" x2="45.2455" y2="91.1013" gradientUnits="userSpaceOnUse">
<stop stop-color="#B0D3FF"/>
<stop offset="0.632687" stop-color="#D8E9FF" stop-opacity="0.1"/>
<stop offset="1" stop-color="#D8E9FF" stop-opacity="0"/>
</linearGradient>
</defs>
</svg>
