<svg width="1600" height="964" viewBox="0 0 1600 964" fill="none" xmlns="http://www.w3.org/2000/svg">
<rect width="1600" height="964" fill="#FAFAFA"/>
<mask id="mask0_34_551" style="mask-type:alpha" maskUnits="userSpaceOnUse" x="0" y="0" width="1600" height="964">
<rect width="1600" height="964" fill="#F7FAFF"/>
</mask>
<g mask="url(#mask0_34_551)">
</g>
<g clip-path="url(#clip0_34_551)">
<path d="M1597.61 200.441L1487.64 139.701L1517.29 113.25L1597.8 172.226V171.05L1517.49 112.27C1517.29 112.074 1517.09 112.074 1516.9 112.27L1486.46 139.505C1486.26 139.701 1486.26 139.701 1486.26 139.897C1486.26 140.093 1486.46 140.093 1486.46 140.289L1597.61 201.616V200.441Z" fill="#EBEBEB"/>
<path d="M1597.21 283.517L1488.42 141.268L1597.61 201.42V200.441L1487.05 139.505C1486.85 139.309 1486.65 139.505 1486.46 139.701C1486.26 139.897 1486.26 140.093 1486.46 140.289L1597.21 285.085V283.517Z" fill="#EBEBEB"/>
<path d="M1148.49 962.237L1296.56 895.619L1311.09 963.02H1312.07L1297.35 894.835C1297.35 894.639 1297.15 894.639 1297.15 894.443C1296.95 894.443 1296.95 894.443 1296.76 894.443L1146.13 962.237H1148.49Z" fill="#EBEBEB"/>
<path d="M1593.88 933.042L1496.67 964H1499.61L1593.88 934.022V933.042Z" fill="#EBEBEB"/>
<path d="M1597.8 171.246L1518.47 113.054L1598 110.507V109.527L1517.09 112.27C1516.9 112.27 1516.7 112.466 1516.7 112.662C1516.7 112.858 1516.7 113.054 1516.9 113.25L1597.8 172.618V171.246Z" fill="#EBEBEB"/>
<path d="M1596.04 502.181L1488.81 495.911L1575.42 443.596L1596.23 459.663V458.487L1575.81 442.617C1575.61 442.421 1575.42 442.421 1575.22 442.617L1487.05 495.911C1486.85 496.107 1486.85 496.303 1486.85 496.499C1486.85 496.695 1487.05 496.891 1487.24 496.891L1596.04 503.356V502.181Z" fill="#EBEBEB"/>
<path d="M800.509 960.473L818.183 930.495L821.718 960.669H822.7L818.968 929.124C818.968 928.928 818.772 928.732 818.576 928.732C818.379 928.732 818.183 928.732 817.986 928.928L799.331 960.669L800.509 960.473Z" fill="#EBEBEB"/>
<path d="M1593.88 933.042L1496.67 964H1499.61L1593.88 934.022V933.042Z" fill="#EBEBEB"/>
<path d="M1593.88 927.948L1491.96 902.672C1491.76 902.672 1491.37 902.672 1491.37 903.064L1476.05 963.804H1477.03L1492.35 903.652L1593.88 928.928V927.948Z" fill="#EBEBEB"/>
<path d="M1594.86 717.514L1539.28 749.451L1497.26 738.283L1595.05 700.859V699.879L1495.69 737.891C1495.49 737.891 1495.29 738.087 1495.29 738.283C1495.29 738.479 1495.49 738.675 1495.69 738.675L1539.28 750.235C1539.28 750.235 1539.28 750.235 1539.48 750.235H1539.68L1595.05 718.493L1594.86 717.514Z" fill="#EBEBEB"/>
<path d="M1311.88 963.02L1297.35 895.619L1353.51 915.604L1329.16 963.216H1330.14L1354.49 915.604C1354.49 915.408 1354.49 915.408 1354.49 915.212C1354.49 915.016 1354.29 915.016 1354.29 915.016L1296.76 894.639C1296.56 894.639 1296.36 894.639 1296.36 894.639C1296.17 894.835 1296.17 894.835 1296.17 895.031L1310.9 963.02H1311.88Z" fill="#EBEBEB"/>
<path d="M1330.34 963.216L1354.29 916.388L1384.14 963.608H1385.32L1354.69 915.016C1354.69 914.82 1354.49 914.82 1354.29 914.82C1354.1 914.82 1353.9 915.016 1353.9 915.016L1329.35 963.02L1330.34 963.216Z" fill="#EBEBEB"/>
<path d="M1384.14 963.412H1385.32L1355.67 916.388L1457.2 963.804H1459.36L1354.69 914.82C1354.49 914.82 1354.3 914.82 1354.1 915.016C1353.9 915.212 1353.9 915.408 1354.1 915.604L1384.14 963.412Z" fill="#EBEBEB"/>
<path d="M1354.1 915.8L1457 963.804H1459.16L1356.06 915.604L1491.37 903.848L1476.05 964H1477.03L1492.35 903.456C1492.35 903.26 1492.35 903.064 1492.35 903.064C1492.35 902.868 1492.15 902.868 1491.96 902.868L1354.29 915.016C1354.1 915.016 1353.9 915.212 1353.9 915.408C1353.71 915.408 1353.9 915.604 1354.1 915.8Z" fill="#EBEBEB"/>
<path d="M822.699 960.473L819.165 929.907L867.081 960.865H868.848L818.968 928.732C818.772 928.732 818.575 928.536 818.379 928.732C818.183 928.732 818.183 928.928 818.183 929.124L821.914 960.669L822.699 960.473Z" fill="#EBEBEB"/>
<path d="M1128.26 650.7H1128.07C1127.87 650.7 1127.87 650.504 1127.87 650.308L1123.16 627.579C1123.16 627.383 1123.16 627.383 1123.16 627.187C1123.16 626.992 1123.35 626.992 1123.55 626.992L1240.59 613.472C1240.79 613.472 1240.99 613.668 1241.18 613.864C1241.18 614.06 1241.18 614.256 1240.79 614.452L1128.26 650.7C1128.46 650.7 1128.46 650.7 1128.26 650.7ZM1124.14 627.775L1128.66 649.524L1236.08 614.844L1124.14 627.775Z" fill="#EBEBEB"/>
<path d="M757.306 960.277L763.393 894.443L817.986 929.124L799.527 960.473H800.509L818.772 929.32C818.968 929.124 818.772 928.928 818.576 928.732L763.001 893.267C762.804 893.267 762.608 893.267 762.608 893.267C762.411 893.267 762.411 893.463 762.411 893.659L756.324 960.277H757.306Z" fill="#EBEBEB"/>
<path d="M818.379 929.515H818.183L762.608 894.051C762.411 894.051 762.411 893.855 762.411 893.659C762.411 893.463 762.411 893.267 762.608 893.267L857.458 826.845C857.655 826.649 857.851 826.649 858.047 826.845C858.244 827.041 858.244 827.237 858.244 827.433L818.968 929.32C818.772 929.32 818.772 929.32 818.379 929.515C818.575 929.515 818.575 929.515 818.379 929.515ZM763.786 893.659L818.379 928.34L856.869 828.413L763.786 893.659Z" fill="#EBEBEB"/>
<path d="M986.871 932.063L818.379 929.319C818.183 929.319 818.183 929.319 817.986 929.124C817.986 928.928 817.79 928.928 817.986 928.732L857.262 826.845C857.262 826.649 857.458 826.649 857.655 826.649C857.851 826.649 858.047 826.649 858.047 826.649L987.264 931.279C987.461 931.475 987.461 931.671 987.461 931.867C987.264 932.063 987.068 932.063 986.871 932.063ZM819.164 928.536L985.693 931.279L858.047 828.021L819.164 928.536Z" fill="#EBEBEB"/>
<path d="M866.884 960.865H868.652L820.146 929.515L985.3 932.063L932.475 961.061H934.438L987.264 932.063C987.461 931.867 987.461 931.671 987.461 931.475C987.461 931.279 987.264 931.083 987.068 931.083L818.575 928.34C818.379 928.34 818.183 928.536 818.183 928.732C818.183 928.928 818.183 929.124 818.379 929.32L866.884 960.865Z" fill="#EBEBEB"/>
<path d="M934.242 961.061L985.497 932.846L968.019 961.257H969.001L987.068 931.867C987.264 931.671 987.068 931.475 987.068 931.279C986.871 931.083 986.675 931.083 986.479 931.279L932.475 961.061H934.242Z" fill="#EBEBEB"/>
<path d="M969.197 961.257L987.068 932.063L1089.18 961.845H1092.52L987.068 931.083C986.871 931.083 986.675 931.083 986.479 931.279L968.019 961.061L969.197 961.257Z" fill="#EBEBEB"/>
<path d="M1435.4 692.434C1435.4 692.434 1435.2 692.434 1435.4 692.434L1240.4 614.452C1240.2 614.452 1240.2 614.256 1240.2 614.06C1240.2 613.864 1240.2 613.668 1240.4 613.668L1338.98 532.551C1339.17 532.551 1339.17 532.355 1339.37 532.355C1339.57 532.355 1339.57 532.551 1339.76 532.551L1435.99 691.65C1436.18 691.846 1435.99 692.042 1435.99 692.238C1435.6 692.238 1435.6 692.434 1435.4 692.434ZM1241.57 613.864L1434.42 691.062L1339.17 533.531L1241.57 613.864Z" fill="#EBEBEB"/>
<path d="M1435.4 692.434C1435.2 692.434 1435.01 692.434 1435.01 692.238L1338.78 533.139C1338.78 532.943 1338.78 532.943 1338.78 532.747C1338.78 532.551 1338.98 532.551 1338.98 532.551L1419.69 496.499C1419.89 496.499 1419.89 496.499 1420.08 496.499C1420.28 496.499 1420.28 496.695 1420.28 496.891L1435.6 692.042C1435.79 692.042 1435.79 692.238 1435.4 692.434ZM1339.96 533.139L1434.81 690.083L1419.69 497.478L1339.96 533.139Z" fill="#EBEBEB"/>
<path d="M1435.4 692.434C1435.2 692.434 1435.01 692.238 1435.01 692.042L1419.69 496.891C1419.69 496.695 1419.69 496.695 1419.89 496.499C1419.89 496.499 1420.08 496.303 1420.28 496.303L1487.64 495.715C1487.64 495.715 1487.83 495.715 1488.03 495.911C1488.03 496.107 1488.23 496.107 1488.03 496.303L1436.18 692.042C1435.79 692.238 1435.6 692.434 1435.4 692.434ZM1420.47 497.282L1435.6 689.299L1486.65 496.695L1420.47 497.282Z" fill="#EBEBEB"/>
<path d="M1595.05 699.879L1495.88 737.695L1436.58 692.238L1595.05 675.192V674.212L1435.2 691.258C1435.01 691.258 1434.81 691.454 1434.81 691.65C1434.81 691.846 1434.81 692.042 1435.01 692.042L1495.29 738.283H1495.49H1495.69L1594.66 700.467L1595.05 699.879Z" fill="#EBEBEB"/>
<path d="M1420.08 497.283C1419.89 497.283 1419.69 497.087 1419.69 497.087C1419.69 496.891 1419.69 496.695 1419.89 496.499L1486.85 432.624C1487.05 432.428 1487.24 432.428 1487.44 432.624C1487.64 432.624 1487.64 432.82 1487.64 433.016L1487.83 496.303C1487.83 496.499 1487.64 496.695 1487.44 496.695L1420.08 497.283ZM1486.65 433.995L1421.26 496.303L1486.85 495.715L1486.65 433.995Z" fill="#EBEBEB"/>
<path d="M1596.63 379.329L1487.44 432.036L1487.24 141.268L1597.21 285.085V283.517L1487.24 139.505C1487.05 139.309 1486.85 139.309 1486.65 139.309C1486.46 139.309 1486.26 139.505 1486.26 139.701L1486.65 432.82C1486.65 433.016 1486.65 433.212 1486.85 433.212H1487.05H1487.24L1596.63 380.309V379.329Z" fill="#EBEBEB"/>
<path d="M1487.24 496.695H1487.05C1486.85 496.695 1486.85 496.499 1486.85 496.303L1486.65 433.016C1486.65 432.82 1486.65 432.82 1486.85 432.624C1487.05 432.624 1487.05 432.428 1487.24 432.428L1575.61 442.421C1575.81 442.421 1576.01 442.617 1576.01 442.812C1576.01 443.008 1576.01 443.204 1575.81 443.4L1487.64 496.695C1487.44 496.695 1487.44 496.695 1487.24 496.695ZM1487.44 433.408L1487.64 495.519L1573.85 443.4L1487.44 433.408Z" fill="#EBEBEB"/>
<path d="M1596.43 417.341L1575.22 442.421L1488.62 432.624L1596.63 380.505V379.525L1486.85 432.624C1486.65 432.624 1486.65 432.82 1486.65 433.212C1486.65 433.408 1486.85 433.604 1487.05 433.604L1575.42 443.596C1575.61 443.596 1575.61 443.596 1575.81 443.4L1596.43 418.908V417.341Z" fill="#EBEBEB"/>
<path d="M1596.23 452.609L1576.2 442.617L1596.43 418.517V417.145L1575.02 442.421C1575.02 442.617 1574.83 442.617 1574.83 442.813C1574.83 443.008 1575.02 443.008 1575.02 443.204L1596.04 453.589L1596.23 452.609Z" fill="#EBEBEB"/>
<path d="M1596.23 458.487L1579.34 445.36L1596.23 453.785V452.805L1575.61 442.617C1575.42 442.421 1575.22 442.617 1575.02 442.812C1574.83 443.008 1575.02 443.204 1575.22 443.4L1596.23 459.663V458.487Z" fill="#EBEBEB"/>
<path d="M986.871 932.063L1089.18 961.845H1092.52L988.246 931.475L1173.43 836.446L1128.66 962.041H1129.64L1174.61 835.663C1174.61 835.467 1174.61 835.271 1174.41 835.075C1174.22 834.879 1174.02 834.879 1173.82 835.075L986.675 931.279C986.479 931.279 986.479 931.475 986.479 931.671C986.479 931.867 986.675 932.063 986.871 932.063Z" fill="#EBEBEB"/>
<path d="M1129.44 962.041L1174.22 836.054L1295.58 894.835L1146.13 962.237H1148.29L1296.95 895.423C1297.15 895.423 1297.15 895.227 1297.15 895.031C1297.15 894.835 1296.95 894.639 1296.95 894.639L1174.22 835.271C1174.02 835.271 1174.02 835.271 1173.82 835.271C1173.63 835.271 1173.63 835.467 1173.63 835.467L1128.46 962.237L1129.44 962.041Z" fill="#EBEBEB"/>
<path d="M1182.07 691.062H1181.88L1128.07 650.7C1127.87 650.504 1127.87 650.308 1127.87 650.112C1128.07 649.916 1128.26 649.916 1128.46 649.916L1213.69 680.874C1213.88 680.874 1214.08 681.07 1214.08 681.266C1214.08 681.462 1213.88 681.657 1213.69 681.657L1182.07 691.062C1182.07 691.062 1182.27 691.062 1182.07 691.062ZM1131.01 651.679L1182.07 690.083L1212.12 681.07L1131.01 651.679Z" fill="#EBEBEB"/>
<path d="M1213.69 681.657C1213.69 681.657 1213.49 681.657 1213.69 681.657L1128.26 650.7C1128.07 650.7 1127.87 650.504 1127.87 650.308C1127.87 650.112 1128.07 649.916 1128.26 649.916L1240.59 613.668C1240.79 613.668 1240.98 613.668 1240.98 613.864C1241.18 614.06 1241.18 614.256 1240.98 614.256L1213.88 681.657C1214.08 681.657 1213.88 681.657 1213.69 681.657ZM1129.83 650.308L1213.49 680.678L1240 614.648L1129.83 650.308Z" fill="#EBEBEB"/>
<path d="M1174.02 836.054C1173.63 836.054 1173.63 835.858 1173.63 835.662L1181.68 690.866C1181.68 690.67 1181.87 690.475 1182.07 690.475L1213.69 681.07C1213.88 681.07 1214.08 681.07 1214.08 681.266C1214.28 681.462 1214.28 681.462 1214.28 681.657L1174.61 835.858C1174.41 835.858 1174.22 836.054 1174.02 836.054ZM1182.46 691.062L1174.81 830.96L1213.1 682.049L1182.46 691.062Z" fill="#EBEBEB"/>
<path d="M1435.4 692.434L1213.69 681.657C1213.49 681.657 1213.49 681.658 1213.3 681.462C1213.3 681.266 1213.3 681.266 1213.3 681.07L1240.4 613.668C1240.4 613.472 1240.59 613.472 1240.59 613.472C1240.79 613.472 1240.79 613.472 1240.98 613.472L1435.79 691.454C1435.99 691.454 1436.18 691.846 1435.99 692.042C1435.79 692.238 1435.6 692.434 1435.4 692.434ZM1214.28 680.874L1432.65 691.454L1240.79 614.648L1214.28 680.874Z" fill="#EBEBEB"/>
<path d="M1240.59 614.452C1240.2 614.452 1240.2 614.256 1240.2 614.06L1217.42 438.502C1217.42 438.306 1217.42 438.11 1217.62 438.11C1217.81 438.11 1218.01 438.11 1218.2 438.11L1339.57 532.551C1339.76 532.551 1339.76 532.747 1339.76 532.943C1339.76 533.139 1339.76 533.139 1339.57 533.335L1240.98 614.452C1240.79 614.256 1240.79 614.452 1240.59 614.452ZM1218.6 439.482L1241.18 613.08L1338.78 532.943L1218.6 439.482Z" fill="#EBEBEB"/>
<path d="M1339.17 533.335C1338.98 533.335 1338.98 533.335 1338.98 533.335L1217.62 438.894C1217.42 438.698 1217.42 438.698 1217.42 438.502C1217.42 438.306 1217.62 438.11 1217.62 438.11L1323.27 390.89C1323.46 390.89 1323.46 390.89 1323.66 390.89C1323.86 390.89 1323.86 391.086 1323.86 391.282L1339.57 533.139C1339.57 533.335 1339.57 533.53 1339.37 533.53C1339.37 533.335 1339.37 533.335 1339.17 533.335ZM1218.79 438.502L1338.58 531.767L1323.07 391.673L1218.79 438.502Z" fill="#EBEBEB"/>
<path d="M1323.66 391.478C1323.66 391.478 1323.46 391.478 1323.66 391.478C1323.46 391.478 1323.27 391.282 1323.27 391.086L1272.8 182.219C1272.8 182.023 1272.8 182.023 1272.8 181.827C1272.8 181.631 1272.99 181.631 1273.19 181.631L1486.65 139.309C1486.85 139.309 1487.05 139.309 1487.05 139.505C1487.24 139.701 1487.24 139.897 1487.05 140.093L1323.86 391.282C1323.86 391.478 1323.86 391.478 1323.66 391.478ZM1273.78 182.415L1323.86 389.91L1485.87 140.485L1273.78 182.415Z" fill="#EBEBEB"/>
<path d="M1339.17 533.335H1338.98C1338.78 533.335 1338.78 533.139 1338.78 532.943L1323.07 391.086C1323.07 390.89 1323.07 390.694 1323.27 390.694C1323.46 390.694 1323.66 390.694 1323.86 390.89L1420.28 496.695C1420.47 496.891 1420.47 496.891 1420.47 497.087C1420.47 497.282 1420.28 497.282 1420.28 497.478L1339.17 533.335C1339.37 533.335 1339.37 533.335 1339.17 533.335ZM1324.25 392.457L1339.57 532.159L1419.1 496.695L1324.25 392.457Z" fill="#EBEBEB"/>
<path d="M1420.08 497.282C1419.89 497.282 1419.89 497.282 1419.69 497.087L1323.27 391.282C1323.07 391.086 1323.07 390.89 1323.27 390.694C1323.46 390.498 1323.66 390.498 1323.86 390.498L1487.24 432.428C1487.44 432.428 1487.44 432.624 1487.64 432.82C1487.64 433.016 1487.64 433.212 1487.44 433.212L1420.47 497.087C1420.28 497.282 1420.08 497.282 1420.08 497.282ZM1325.03 391.869L1420.08 496.107L1486.06 433.016L1325.03 391.869Z" fill="#EBEBEB"/>
<path d="M1487.05 433.408L1323.46 391.477C1323.27 391.477 1323.27 391.282 1323.07 391.282C1323.07 391.086 1323.07 391.086 1323.07 390.89L1486.26 139.505C1486.46 139.309 1486.65 139.309 1486.85 139.309C1487.05 139.309 1487.24 139.505 1487.24 139.701L1487.64 432.82C1487.64 433.016 1487.64 433.016 1487.44 433.212C1487.24 433.212 1487.05 433.408 1487.05 433.408ZM1324.45 390.694L1486.65 432.232L1486.26 141.464L1324.45 390.694Z" fill="#EBEBEB"/>
<path d="M1174.02 836.054C1173.82 836.054 1173.82 836.054 1173.63 835.858C1173.43 835.662 1173.43 835.662 1173.43 835.467L1213.1 681.266C1213.1 681.07 1213.3 681.07 1213.3 680.874C1213.49 680.874 1213.69 680.874 1213.69 680.874L1381.59 796.671C1381.79 796.867 1381.79 796.867 1381.79 797.063C1381.79 797.259 1381.59 797.455 1381.4 797.455L1174.02 836.054C1174.02 836.054 1174.22 836.054 1174.02 836.054ZM1213.88 682.049L1174.61 835.075L1380.22 796.867L1213.88 682.049Z" fill="#EBEBEB"/>
<path d="M1296.76 895.423H1296.56L1173.82 836.054C1173.63 836.054 1173.63 835.858 1173.63 835.663C1173.63 835.467 1173.82 835.271 1174.02 835.271L1381.4 796.671C1381.59 796.671 1381.79 796.671 1381.79 796.867C1381.79 797.063 1381.79 797.259 1381.79 797.455L1296.95 895.423C1297.15 895.423 1296.95 895.423 1296.76 895.423ZM1175.59 835.663L1296.76 894.247L1380.41 797.455L1175.59 835.663Z" fill="#EBEBEB"/>
<path d="M1381.59 797.455H1381.4L1213.3 681.657C1213.1 681.462 1213.1 681.266 1213.1 681.07C1213.1 680.874 1213.3 680.678 1213.49 680.678L1435.2 691.454C1435.4 691.454 1435.6 691.454 1435.6 691.65C1435.6 691.846 1435.6 692.042 1435.6 692.042L1381.79 797.063C1381.79 797.259 1381.79 797.259 1381.59 797.455ZM1215.26 681.853L1381.4 796.279L1434.61 692.434L1215.26 681.853Z" fill="#EBEBEB"/>
<path d="M1354.29 915.8C1354.29 915.8 1354.1 915.8 1354.29 915.8L1296.76 895.423C1296.56 895.423 1296.56 895.227 1296.56 895.031C1296.56 894.835 1296.56 894.639 1296.56 894.639L1381.39 796.671C1381.59 796.475 1381.79 796.475 1381.98 796.475C1382.18 796.475 1382.18 796.867 1382.18 797.063L1354.69 915.408C1354.69 915.604 1354.49 915.604 1354.49 915.8H1354.29ZM1297.54 894.835L1353.9 914.82L1380.61 798.827L1297.54 894.835Z" fill="#EBEBEB"/>
<path d="M1354.3 915.8C1354.1 915.8 1354.1 915.8 1353.9 915.604C1353.9 915.408 1353.71 915.408 1353.71 915.212L1381 796.867C1381 796.671 1381.2 796.671 1381.4 796.475C1381.59 796.475 1381.79 796.475 1381.79 796.671L1492.15 903.064C1492.35 903.26 1492.35 903.456 1492.35 903.456C1492.35 903.652 1492.15 903.652 1491.96 903.848L1354.3 915.8ZM1381.79 797.847L1354.88 914.82L1490.97 902.868L1381.79 797.847Z" fill="#EBEBEB"/>
<path d="M1381.59 797.455C1381.39 797.455 1381.39 797.455 1381.2 797.259C1381 797.063 1381 796.867 1381.2 796.671L1435.01 691.65C1435.01 691.454 1435.2 691.454 1435.4 691.454C1435.6 691.454 1435.6 691.454 1435.79 691.454L1496.08 737.695C1496.28 737.695 1496.28 737.891 1496.28 738.087C1496.28 738.283 1496.08 738.479 1496.08 738.479L1381.79 797.063C1381.59 797.455 1381.59 797.455 1381.59 797.455ZM1435.6 692.63L1382.57 795.888L1494.9 738.283L1435.6 692.63Z" fill="#EBEBEB"/>
<path d="M1491.96 903.652C1491.76 903.652 1491.76 903.652 1491.56 903.456L1381.2 797.063C1381 796.867 1381 796.867 1381 796.671C1381 796.475 1381.2 796.475 1381.4 796.279L1539.28 749.255C1539.48 749.255 1539.68 749.255 1539.68 749.451C1539.87 749.647 1539.87 749.843 1539.87 749.843L1492.35 903.456C1492.35 903.456 1492.15 903.652 1491.96 903.652ZM1382.38 797.063L1491.56 902.28L1538.5 750.431L1382.38 797.063Z" fill="#EBEBEB"/>
<path d="M1381.59 797.455C1381.4 797.455 1381.2 797.259 1381.2 797.259C1381.2 797.063 1381.2 796.867 1381.4 796.671L1495.69 738.087C1495.88 738.087 1495.88 738.087 1496.08 738.087L1539.68 749.647C1539.87 749.647 1540.07 749.843 1540.07 750.039C1540.07 750.235 1539.87 750.431 1539.68 750.431L1381.59 797.455ZM1495.88 738.675L1386.11 795.104L1537.52 749.843L1495.88 738.675Z" fill="#EBEBEB"/>
<path d="M699.963 855.844C699.767 855.844 699.57 855.648 699.57 855.452C699.57 855.256 699.57 855.06 699.767 854.864L830.358 778.449C830.555 778.449 830.555 778.449 830.751 778.449C830.947 778.449 830.947 778.645 830.947 778.645L858.047 826.649C858.047 826.845 858.047 826.845 858.047 827.041C858.047 827.237 857.851 827.237 857.655 827.237L699.963 855.844C700.159 855.844 700.159 855.844 699.963 855.844ZM830.555 779.821L702.516 854.472L857.066 826.649L830.555 779.821Z" fill="#EBEBEB"/>
<path d="M857.851 827.629C857.655 827.629 857.655 827.629 857.851 827.629C857.655 827.629 857.459 827.433 857.459 827.433L830.358 779.233C830.358 779.037 830.358 779.037 830.358 778.841C830.358 778.645 830.555 778.645 830.751 778.645L911.463 762.579C911.659 762.579 911.855 762.579 911.855 762.775C912.052 762.971 911.855 763.166 911.855 763.362L858.244 827.433C858.048 827.433 857.851 827.629 857.851 827.629ZM831.537 779.429L857.851 826.258L910.284 763.754L831.537 779.429Z" fill="#EBEBEB"/>
<path d="M1086.04 504.14C1085.65 504.14 1085.45 503.748 1085.65 503.552L1110.98 406.173C1110.98 405.977 1111.38 405.781 1111.57 405.781C1111.77 405.781 1111.96 406.173 1111.96 406.369L1086.63 503.748C1086.44 504.14 1086.24 504.14 1086.04 504.14Z" fill="#EBEBEB"/>
<path d="M1086.04 504.14C1085.85 504.14 1085.85 504.14 1085.85 503.944C1085.65 503.748 1085.65 503.552 1085.65 503.552L1110.98 406.173C1110.98 405.977 1111.18 405.977 1111.18 405.977C1111.38 405.977 1111.38 405.977 1111.57 405.977L1218.01 437.914C1218.21 437.914 1218.4 438.11 1218.4 438.306C1218.4 438.502 1218.4 438.698 1218.21 438.698L1086.44 504.14C1086.24 504.14 1086.24 504.14 1086.04 504.14ZM1111.77 406.956L1086.83 502.965L1216.63 438.502L1111.77 406.956Z" fill="#EBEBEB"/>
<path d="M1123.55 627.971C1123.35 627.971 1123.16 627.775 1123.16 627.579L1085.65 503.944C1085.65 503.748 1085.65 503.552 1085.85 503.356C1086.04 503.161 1086.24 503.161 1086.44 503.356L1240.99 613.472C1241.18 613.668 1241.18 613.864 1241.18 613.864C1241.18 614.06 1240.98 614.256 1240.79 614.256L1123.55 627.971C1123.55 627.971 1123.75 627.971 1123.55 627.971ZM1086.83 504.924L1123.94 626.992L1239.41 613.668L1086.83 504.924Z" fill="#EBEBEB"/>
<path d="M1240.59 614.452H1240.4L1085.85 504.336C1085.65 504.336 1085.65 504.14 1085.65 503.944C1085.65 503.748 1085.85 503.552 1085.85 503.552L1217.62 438.11C1217.81 438.11 1217.81 438.11 1218.01 438.11C1218.21 438.11 1218.21 438.306 1218.21 438.502L1240.98 614.06C1240.98 614.256 1240.98 614.452 1240.79 614.452C1240.79 614.452 1240.79 614.452 1240.59 614.452ZM1087.02 503.748L1240.2 612.884L1217.62 439.09L1087.02 503.748Z" fill="#EBEBEB"/>
<path d="M1043.23 714.575C1043.04 714.575 1043.04 714.575 1042.84 714.379C1042.64 714.183 1042.64 713.987 1042.84 713.791L1123.35 627.187C1123.55 626.992 1123.55 626.992 1123.75 626.992C1123.94 626.992 1123.94 627.188 1124.14 627.383L1128.85 650.112C1128.85 650.308 1128.85 650.504 1128.66 650.504L1043.43 714.379C1043.43 714.575 1043.23 714.575 1043.23 714.575ZM1123.35 628.363L1046.96 710.656L1127.87 650.112L1123.35 628.363Z" fill="#EBEBEB"/>
<path d="M1043.23 714.575C1043.04 714.575 1042.84 714.379 1042.84 714.379C1042.84 714.183 1042.84 713.987 1043.04 713.791L1128.26 649.916C1128.46 649.72 1128.66 649.72 1128.85 649.916L1182.66 690.279C1182.86 690.475 1182.86 690.67 1182.86 690.67C1182.86 690.67 1182.66 691.062 1182.46 691.062L1043.23 714.575ZM1128.26 650.896L1045 713.399L1180.89 690.474L1128.26 650.896Z" fill="#EBEBEB"/>
<path d="M1174.02 836.054C1173.82 836.054 1173.82 836.054 1173.63 835.858L1042.64 714.379C1042.45 714.183 1042.45 713.987 1042.45 713.987C1042.45 713.791 1042.64 713.791 1042.84 713.595L1181.68 690.083C1181.87 690.083 1181.87 690.083 1182.07 690.279C1182.27 690.279 1182.27 690.475 1182.27 690.67L1174.22 835.467C1174.61 835.662 1174.41 835.858 1174.02 836.054C1174.22 836.054 1174.22 836.054 1174.02 836.054ZM1044.21 714.379L1173.63 834.487L1181.48 691.062L1044.21 714.379Z" fill="#EBEBEB"/>
<path d="M1595.64 590.744L1436.18 690.866L1487.64 496.891L1595.84 542.544V541.564L1487.44 495.911C1487.24 495.911 1487.24 495.911 1487.05 495.911C1486.85 495.911 1486.85 496.107 1486.85 496.303L1435.01 691.846C1435.01 692.042 1435.01 692.238 1435.2 692.238H1435.4H1435.6L1595.45 591.723L1595.64 590.744Z" fill="#EBEBEB"/>
<path d="M1595.05 674.408L1437.17 691.258L1595.45 591.919V590.744L1435.2 691.454C1435.01 691.65 1435.01 691.846 1435.01 692.042C1435.01 692.238 1435.2 692.434 1435.4 692.434L1595.05 675.388V674.408Z" fill="#EBEBEB"/>
<path d="M1595.84 541.368L1489.99 496.695L1596.04 502.965V501.985L1487.44 495.519C1487.24 495.519 1487.05 495.715 1487.05 495.911C1487.05 496.107 1487.05 496.303 1487.24 496.499L1595.84 542.348V541.368Z" fill="#EBEBEB"/>
<path d="M857.851 827.629C857.655 827.629 857.655 827.629 857.458 827.433C857.262 827.237 857.262 827.041 857.458 826.845L911.07 762.775C911.07 762.579 911.266 762.579 911.462 762.579L1017.51 762.187C1017.7 762.187 1017.9 762.383 1017.9 762.579C1017.9 762.775 1017.9 762.971 1017.7 763.167L857.851 827.629ZM911.659 763.558L859.226 826.062L1014.95 763.362L911.659 763.558Z" fill="#EBEBEB"/>
<path d="M986.871 932.063C986.675 932.063 986.675 932.063 986.675 931.867L857.458 827.237C857.262 827.041 857.262 827.041 857.262 826.845C857.262 826.649 857.458 826.454 857.458 826.454L1017.11 762.187C1017.31 762.187 1017.51 762.187 1017.51 762.187C1017.7 762.383 1017.7 762.383 1017.7 762.579L987.46 931.671C987.264 931.867 987.264 932.063 986.871 932.063C987.068 932.063 987.068 932.063 986.871 932.063ZM858.636 827.237L986.675 930.887L1016.92 763.558L858.636 827.237Z" fill="#EBEBEB"/>
<path d="M911.463 763.558C911.266 763.558 911.07 763.362 911.07 763.167C911.07 762.971 911.07 762.775 911.266 762.579L1043.04 713.595C1043.23 713.595 1043.43 713.595 1043.63 713.791C1043.82 713.987 1043.82 714.183 1043.63 714.379L1017.9 762.971C1017.9 763.167 1017.7 763.167 1017.51 763.167L911.463 763.558ZM1042.25 714.966L914.015 762.579L1017.31 762.187L1042.25 714.966Z" fill="#EBEBEB"/>
<path d="M986.871 932.063H986.675C986.479 931.867 986.479 931.867 986.479 931.671L1017.11 762.775C1017.11 762.579 1017.31 762.579 1017.31 762.383C1017.51 762.383 1017.51 762.383 1017.7 762.383L1174.22 835.271C1174.41 835.271 1174.41 835.467 1174.41 835.662C1174.41 835.858 1174.41 836.054 1174.22 836.054L987.068 932.259C987.068 932.063 987.068 932.063 986.871 932.063ZM1017.9 763.362L987.46 930.887L1173.04 835.662L1017.9 763.362Z" fill="#EBEBEB"/>
<path d="M1174.02 836.054L1017.31 763.166C1017.11 763.166 1017.11 762.971 1017.11 762.971C1017.11 762.775 1017.11 762.775 1017.11 762.579L1042.84 713.987C1042.84 713.791 1043.04 713.791 1043.23 713.791C1043.43 713.791 1043.43 713.791 1043.62 713.987L1174.61 835.467C1174.81 835.662 1174.81 835.858 1174.61 836.054C1174.41 835.858 1174.22 836.054 1174.02 836.054ZM1018.1 762.579L1171.66 833.899L1043.43 714.771L1018.1 762.579Z" fill="#EBEBEB"/>
<path d="M1594.66 770.024L1540.46 749.843L1594.86 718.689V717.71L1539.09 749.647C1538.89 749.647 1538.89 749.843 1538.89 750.039C1538.89 750.235 1539.09 750.431 1539.28 750.431L1594.66 771.004V770.024Z" fill="#EBEBEB"/>
<path d="M1111.38 406.76C1111.18 406.76 1111.18 406.76 1110.98 406.564C1110.79 406.369 1110.98 405.977 1111.18 405.977L1217.62 335.048C1217.81 334.852 1218.21 335.048 1218.21 335.244C1218.4 335.44 1218.21 335.832 1218.01 335.832L1111.57 406.76C1111.57 406.76 1111.57 406.76 1111.38 406.76Z" fill="#EBEBEB"/>
<path d="M1218.01 438.894C1217.81 438.894 1217.81 438.698 1218.01 438.894L1111.38 406.956C1111.18 406.956 1110.98 406.76 1110.98 406.565C1110.98 406.369 1110.98 406.173 1111.18 406.173L1217.62 335.244C1217.81 335.244 1218.01 335.048 1218.01 335.244C1218.2 335.244 1218.2 335.44 1218.2 335.636V438.698C1218.2 438.894 1218.2 438.894 1218.01 439.09C1218.2 438.698 1218.01 438.894 1218.01 438.894ZM1112.55 406.173L1217.62 437.718V336.224L1112.55 406.173Z" fill="#EBEBEB"/>
<path d="M1218.01 438.894H1217.81C1217.62 438.894 1217.62 438.698 1217.62 438.502V335.44C1217.62 335.244 1217.62 335.048 1217.81 335.048C1218.01 335.048 1218.2 335.048 1218.2 335.048L1324.05 390.694C1324.25 390.694 1324.25 390.89 1324.25 391.086C1324.25 391.282 1324.05 391.477 1324.05 391.477L1218.01 438.894C1218.01 438.894 1218.01 438.698 1218.01 438.894ZM1218.2 336.028V437.522L1322.48 390.89L1218.2 336.028Z" fill="#EBEBEB"/>
<path d="M1323.66 391.478H1323.46L1217.62 335.832C1217.42 335.636 1217.22 335.44 1217.42 335.244L1272.8 182.023C1272.8 181.827 1272.99 181.631 1273.19 181.631C1273.39 181.631 1273.58 181.827 1273.58 182.023L1324.05 391.086C1324.05 391.282 1324.05 391.478 1323.86 391.478C1323.86 391.478 1323.66 391.478 1323.66 391.478ZM1218.4 335.048L1322.87 390.106L1272.99 183.59L1218.4 335.048Z" fill="#EBEBEB"/>
<path d="M1594.27 833.703L1492.74 902.084L1539.48 750.823L1594.27 821.163V819.596L1539.68 749.451C1539.48 749.255 1539.48 749.255 1539.28 749.255C1539.09 749.255 1538.89 749.451 1538.89 749.647L1491.37 903.064C1491.37 903.26 1491.37 903.456 1491.56 903.652H1491.76H1491.96L1594.07 834.879L1594.27 833.703Z" fill="#EBEBEB"/>
<path d="M1593.88 927.948L1493.13 902.868L1594.27 834.879V833.703L1491.56 902.868C1491.37 903.064 1491.37 903.064 1491.37 903.26C1491.37 903.456 1491.56 903.652 1491.76 903.652L1593.88 928.928V927.948Z" fill="#EBEBEB"/>
<path d="M1594.47 819.792L1540.85 750.823L1594.86 770.808V769.828L1539.68 749.255C1539.48 749.255 1539.28 749.255 1539.09 749.451C1538.89 749.647 1538.89 749.843 1539.09 750.039L1594.47 821.163V819.792Z" fill="#EBEBEB"/>
<path d="M1517.09 107.763C1514.34 107.763 1512.18 109.919 1512.18 112.466C1512.18 115.209 1514.34 117.364 1516.9 117.364C1519.65 117.364 1521.81 115.209 1521.81 112.662C1522 109.919 1519.84 107.763 1517.09 107.763Z" fill="#EBEBEB"/>
<path d="M1517.09 107.763C1519.84 107.763 1521.81 109.919 1521.81 112.662C1521.81 115.405 1519.64 117.364 1516.9 117.364C1514.15 117.364 1512.18 115.209 1512.18 112.466C1512.38 109.919 1514.54 107.763 1517.09 107.763ZM1517.09 106C1513.36 106 1510.42 108.939 1510.42 112.662C1510.42 116.385 1513.36 119.324 1517.09 119.324C1520.82 119.324 1523.77 116.385 1523.77 112.662C1523.77 108.939 1520.82 106 1517.09 106Z" fill="#BDCEFF"/>
<path d="M762.804 890.72C761.233 890.72 759.858 892.092 759.858 893.659C759.858 895.227 761.233 896.598 762.804 896.598C764.375 896.598 765.75 895.227 765.75 893.659C765.946 891.896 764.571 890.72 762.804 890.72Z" fill="#EBEBEB"/>
<path d="M762.804 890.72C764.375 890.72 765.75 892.092 765.75 893.659C765.75 895.227 764.375 896.598 762.804 896.598C761.233 896.598 759.858 895.227 759.858 893.659C759.858 891.896 761.233 890.72 762.804 890.72ZM763 888.761C760.447 888.761 758.091 890.916 758.091 893.463C758.091 896.01 760.251 898.362 762.804 898.362C765.553 898.362 767.713 896.206 767.713 893.659C767.713 891.112 765.553 888.761 763 888.761Z" fill="#BDCEFF"/>
<path d="M818.379 924.813C816.022 924.813 814.255 926.576 814.255 928.928C814.255 931.279 816.022 933.042 818.379 933.042C820.735 933.042 822.503 931.279 822.503 928.928C822.503 926.772 820.735 924.813 818.379 924.813Z" fill="#EBEBEB"/>
<path d="M818.379 924.813C820.736 924.813 822.503 926.576 822.503 928.928C822.503 931.279 820.736 933.042 818.379 933.042C816.023 933.042 814.255 931.279 814.255 928.928C814.451 926.772 816.219 924.813 818.379 924.813ZM818.575 923.05C815.237 923.05 812.684 925.597 812.684 928.928C812.684 932.259 815.237 934.806 818.575 934.806C821.914 934.806 824.467 932.259 824.467 928.928C824.467 925.793 821.717 923.05 818.575 923.05Z" fill="#BDCEFF"/>
<path d="M1575.42 439.286C1573.45 439.286 1571.88 440.853 1571.88 442.813C1571.88 444.772 1573.45 446.339 1575.42 446.339C1577.38 446.339 1578.95 444.772 1578.95 442.813C1578.95 440.853 1577.38 439.286 1575.42 439.286Z" fill="#EBEBEB"/>
<path d="M1575.42 439.286C1577.38 439.286 1578.95 440.853 1578.95 442.813C1578.95 444.772 1577.38 446.339 1575.42 446.339C1573.45 446.339 1571.88 444.772 1571.88 442.813C1571.88 440.853 1573.45 439.286 1575.42 439.286ZM1575.42 437.522C1572.47 437.522 1569.92 439.873 1569.92 442.813C1569.92 445.752 1572.27 448.299 1575.22 448.299C1578.17 448.299 1580.72 445.947 1580.72 443.008C1580.92 439.873 1578.56 437.522 1575.42 437.522Z" fill="#BDCEFF"/>
<path d="M1339.17 538.821C1342.54 538.821 1345.26 536.101 1345.26 532.747C1345.26 529.392 1342.54 526.673 1339.17 526.673C1335.81 526.673 1333.09 529.392 1333.09 532.747C1333.09 536.101 1335.81 538.821 1339.17 538.821Z" fill="#EBEBEB"/>
<path d="M1339.37 526.673C1342.71 526.673 1345.46 529.416 1345.46 532.747C1345.46 536.078 1342.71 538.821 1339.37 538.821C1336.03 538.821 1333.28 536.078 1333.28 532.747C1333.09 529.416 1335.84 526.673 1339.37 526.673ZM1339.37 524.909C1335.05 524.909 1331.32 528.436 1331.32 532.747C1331.32 537.057 1334.85 540.78 1339.17 540.78C1343.49 540.78 1347.22 537.253 1347.22 532.943C1347.22 528.436 1343.69 524.909 1339.37 524.909Z" fill="#BDCEFF"/>
<path d="M1422.63 496.891C1422.63 495.519 1421.46 494.343 1420.08 494.343C1418.71 494.343 1417.53 495.519 1417.53 496.891C1417.53 498.262 1418.71 499.438 1420.08 499.438C1421.46 499.438 1422.63 498.262 1422.63 496.891Z" fill="#EBEBEB"/>
<path d="M1420.08 494.148C1421.46 494.148 1422.63 495.323 1422.63 496.695C1422.63 498.066 1421.46 499.242 1420.08 499.242C1418.71 499.242 1417.53 498.066 1417.53 496.695C1417.53 495.323 1418.51 494.148 1420.08 494.148ZM1420.08 492.384C1417.53 492.384 1415.56 494.343 1415.56 496.891C1415.56 499.438 1417.53 501.397 1420.08 501.397C1422.63 501.397 1424.6 499.438 1424.6 496.891C1424.6 494.343 1422.44 492.384 1420.08 492.384Z" fill="#BDCEFF"/>
<path d="M1487.05 438.894C1490.39 438.894 1493.13 436.151 1493.13 433.016C1493.13 429.685 1490.39 426.942 1487.24 426.942C1483.9 426.942 1481.16 429.685 1481.16 432.82C1480.96 436.151 1483.71 438.894 1487.05 438.894Z" fill="#EBEBEB"/>
<path d="M1487.05 426.942C1490.38 426.942 1493.13 429.685 1492.94 433.016C1492.74 436.347 1490.19 439.09 1486.85 438.894C1483.51 438.894 1480.76 436.151 1480.96 432.82C1480.96 429.489 1483.71 426.942 1487.05 426.942ZM1487.05 424.982C1482.73 424.982 1479.19 428.509 1479.19 432.82C1479.19 437.13 1482.73 440.657 1487.05 440.657C1491.37 440.657 1494.9 437.13 1494.9 432.82C1494.9 428.509 1491.37 424.982 1487.05 424.982Z" fill="#BDCEFF"/>
<path d="M1490.39 139.897C1490.39 137.741 1488.81 136.174 1486.65 136.174C1484.49 136.174 1482.92 137.741 1482.92 139.897C1482.92 142.052 1484.49 143.62 1486.65 143.62C1488.81 143.62 1490.39 141.856 1490.39 139.897Z" fill="#EBEBEB"/>
<path d="M1486.65 135.978C1488.81 135.978 1490.38 137.741 1490.38 139.701C1490.38 141.66 1488.62 143.424 1486.65 143.424C1484.49 143.424 1482.92 141.66 1482.92 139.701C1482.92 137.741 1484.69 135.978 1486.65 135.978ZM1486.65 134.215C1483.51 134.215 1480.96 136.762 1480.96 139.701C1480.96 142.836 1483.51 145.383 1486.46 145.383C1489.6 145.383 1492.15 142.836 1492.15 139.897C1492.35 136.762 1489.8 134.215 1486.65 134.215Z" fill="#BDCEFF"/>
<path d="M1213.69 675.779C1210.74 675.779 1208.19 678.131 1208.19 681.266C1208.19 684.205 1210.55 686.752 1213.69 686.752C1216.63 686.752 1219.19 684.401 1219.19 681.266C1219.19 678.327 1216.63 675.779 1213.69 675.779Z" fill="#EBEBEB"/>
<path d="M1213.69 675.779C1216.63 675.779 1219.19 678.327 1219.19 681.266C1219.19 684.205 1216.63 686.752 1213.69 686.752C1210.74 686.752 1208.19 684.205 1208.19 681.266C1208.19 678.131 1210.74 675.779 1213.69 675.779ZM1213.69 674.016C1209.76 674.016 1206.42 677.151 1206.42 681.266C1206.42 685.184 1209.56 688.515 1213.69 688.515C1217.62 688.515 1220.95 685.38 1220.95 681.266C1220.95 677.347 1217.62 674.016 1213.69 674.016Z" fill="#BDCEFF"/>
<path d="M1296.76 890.328C1294.2 890.328 1292.04 892.484 1292.04 895.031C1292.04 897.578 1294.2 899.733 1296.76 899.733C1299.31 899.733 1301.47 897.578 1301.47 895.031C1301.47 892.484 1299.31 890.328 1296.76 890.328Z" fill="#EBEBEB"/>
<path d="M1296.76 890.328C1299.31 890.328 1301.47 892.484 1301.47 895.031C1301.47 897.578 1299.31 899.733 1296.76 899.733C1294.2 899.733 1292.04 897.578 1292.04 895.031C1292.04 892.288 1294.2 890.328 1296.76 890.328ZM1296.76 888.369C1293.22 888.369 1290.28 891.308 1290.28 894.835C1290.28 898.362 1293.22 901.301 1296.76 901.301C1300.29 901.301 1303.24 898.362 1303.24 894.835C1303.24 891.308 1300.49 888.565 1296.76 888.369Z" fill="#BDCEFF"/>
<path d="M1354.29 909.334C1350.96 909.334 1348.21 912.077 1348.21 915.408C1348.21 918.739 1350.96 921.482 1354.29 921.482C1357.63 921.482 1360.38 918.739 1360.38 915.408C1360.38 912.077 1357.63 909.334 1354.29 909.334Z" fill="#EBEBEB"/>
<path d="M1354.29 909.334C1357.63 909.334 1360.38 912.077 1360.38 915.408C1360.38 918.739 1357.63 921.482 1354.29 921.482C1350.96 921.482 1348.21 918.739 1348.21 915.408C1348.21 911.881 1350.96 909.138 1354.29 909.334ZM1354.29 907.375C1349.97 907.375 1346.44 910.902 1346.44 915.212C1346.44 919.523 1349.97 923.05 1354.29 923.05C1358.61 923.05 1362.15 919.523 1362.15 915.212C1362.15 910.902 1358.61 907.375 1354.29 907.375Z" fill="#BDCEFF"/>
<path d="M1381.59 793.536C1379.63 793.536 1378.25 795.104 1378.25 796.867C1378.25 798.827 1379.82 800.198 1381.59 800.198C1383.56 800.198 1384.93 798.631 1384.93 796.867C1384.93 795.104 1383.36 793.536 1381.59 793.536Z" fill="#EBEBEB"/>
<path d="M1381.59 793.536C1383.56 793.536 1384.93 795.104 1384.93 796.867C1384.93 798.827 1383.36 800.198 1381.59 800.198C1379.63 800.198 1378.25 798.631 1378.25 796.867C1378.25 795.104 1379.63 793.536 1381.59 793.536ZM1381.59 791.773C1378.65 791.773 1376.29 794.124 1376.29 797.063C1376.29 800.002 1378.65 802.354 1381.59 802.354C1384.54 802.354 1386.89 800.002 1386.89 797.063C1386.7 794.124 1384.54 791.773 1381.59 791.773Z" fill="#BDCEFF"/>
<path d="M1495.88 731.817C1492.35 731.817 1489.4 734.756 1489.21 738.283C1489.21 741.81 1492.15 744.749 1495.69 744.945C1499.22 744.945 1502.17 742.005 1502.36 738.479C1502.36 734.756 1499.42 731.817 1495.88 731.817Z" fill="#EBEBEB"/>
<path d="M1495.88 731.817C1499.42 731.817 1502.36 734.756 1502.36 738.479C1502.36 742.005 1499.42 744.945 1495.69 744.945C1492.15 744.945 1489.21 742.006 1489.21 738.283C1489.21 734.56 1492.15 731.621 1495.88 731.817ZM1495.88 729.857C1491.17 729.857 1487.44 733.58 1487.44 738.283C1487.44 742.985 1491.17 746.708 1495.88 746.708C1500.6 746.708 1504.33 742.985 1504.33 738.283C1504.13 733.776 1500.4 729.857 1495.88 729.857Z" fill="#BDCEFF"/>
<path d="M700.159 852.709C698.588 852.709 697.41 853.884 697.41 855.452C697.41 857.019 698.588 858.195 700.159 858.195C701.73 858.195 702.909 857.019 702.909 855.452C702.712 853.884 701.534 852.709 700.159 852.709Z" fill="#EBEBEB"/>
<path d="M700.159 852.709C701.73 852.709 702.909 853.884 702.909 855.452C702.909 857.019 701.73 858.195 700.159 858.195C698.588 858.195 697.41 857.019 697.41 855.452C697.41 853.884 698.588 852.709 700.159 852.709ZM700.159 850.945C697.606 850.945 695.643 852.905 695.643 855.452C695.643 857.999 697.606 859.958 700.159 859.958C702.712 859.958 704.676 857.999 704.676 855.452C704.676 852.905 702.516 850.945 700.159 850.945Z" fill="#BDCEFF"/>
<path d="M830.751 774.727C828.394 774.727 826.431 776.686 826.431 779.037C826.431 781.388 828.394 783.348 830.751 783.348C833.108 783.348 835.071 781.388 835.071 779.037C835.071 776.686 833.108 774.727 830.751 774.727Z" fill="#EBEBEB"/>
<path d="M830.751 774.727C833.107 774.727 835.071 776.686 835.071 779.037C835.071 781.388 833.107 783.348 830.751 783.348C828.394 783.348 826.431 781.388 826.431 779.037C826.431 776.686 828.394 774.727 830.751 774.727ZM830.751 772.963C827.412 772.963 824.467 775.706 824.467 779.037C824.467 782.368 827.216 785.307 830.555 785.307C833.893 785.307 836.839 782.564 836.839 779.233C837.035 775.706 834.286 772.963 830.751 772.963Z" fill="#BDCEFF"/>
<path d="M1086.04 501.201C1084.67 501.201 1083.49 502.377 1083.49 503.748C1083.49 505.12 1084.67 506.296 1086.04 506.296C1087.42 506.296 1088.6 505.12 1088.6 503.748C1088.79 502.377 1087.61 501.201 1086.04 501.201Z" fill="#EBEBEB"/>
<path d="M1086.04 501.201C1087.42 501.201 1088.59 502.377 1088.59 503.748C1088.59 505.12 1087.42 506.296 1086.04 506.296C1084.67 506.296 1083.49 505.12 1083.49 503.748C1083.49 502.377 1084.67 501.201 1086.04 501.201ZM1086.04 499.242C1083.49 499.242 1081.53 501.201 1081.53 503.748C1081.53 506.296 1083.49 508.255 1086.04 508.255C1088.59 508.255 1090.56 506.296 1090.56 503.748C1090.56 501.397 1088.59 499.242 1086.04 499.242Z" fill="#BDCEFF"/>
<path d="M1240.59 607.986C1237.25 607.986 1234.5 610.729 1234.5 613.864C1234.5 617.195 1237.25 619.938 1240.4 619.938C1243.73 619.938 1246.48 617.195 1246.48 614.06C1246.68 610.729 1243.93 607.986 1240.59 607.986Z" fill="#EBEBEB"/>
<path d="M1240.59 607.986C1243.93 607.986 1246.68 610.729 1246.48 614.06C1246.48 617.391 1243.73 620.134 1240.4 619.938C1237.06 619.938 1234.31 617.195 1234.5 613.864C1234.7 610.533 1237.45 607.986 1240.59 607.986ZM1240.79 606.026C1236.47 606.026 1232.93 609.553 1232.93 613.864C1232.93 618.175 1236.47 621.701 1240.79 621.701C1245.11 621.701 1248.64 618.175 1248.64 613.864C1248.45 609.553 1245.11 606.026 1240.79 606.026Z" fill="#BDCEFF"/>
<path d="M1123.55 630.518C1125.12 630.518 1126.5 629.147 1126.5 627.579C1126.5 626.012 1125.12 624.64 1123.55 624.64C1121.98 624.64 1120.6 626.012 1120.6 627.579C1120.6 629.147 1121.98 630.518 1123.55 630.518Z" fill="#EBEBEB"/>
<path d="M1123.55 624.444C1125.12 624.444 1126.5 625.816 1126.5 627.383C1126.5 628.951 1125.12 630.322 1123.55 630.322C1121.98 630.322 1120.6 628.951 1120.6 627.383C1120.6 625.816 1121.98 624.444 1123.55 624.444ZM1123.55 622.681C1120.8 622.681 1118.64 624.836 1118.64 627.579C1118.64 630.322 1120.8 632.478 1123.55 632.478C1126.3 632.478 1128.46 630.322 1128.46 627.579C1128.46 624.836 1126.3 622.681 1123.55 622.681Z" fill="#BDCEFF"/>
<path d="M1128.46 646.977C1126.5 646.977 1125.12 648.544 1125.12 650.308C1125.12 652.267 1126.69 653.639 1128.46 653.639C1130.42 653.639 1131.8 652.071 1131.8 650.308C1131.8 648.348 1130.23 646.977 1128.46 646.977Z" fill="#EBEBEB"/>
<path d="M1128.46 646.977C1130.42 646.977 1131.8 648.544 1131.8 650.308C1131.8 652.267 1130.23 653.639 1128.46 653.639C1126.5 653.639 1125.12 652.071 1125.12 650.308C1124.93 648.348 1126.5 646.781 1128.46 646.977ZM1128.46 645.018C1125.51 645.018 1123.16 647.369 1123.16 650.112C1123.16 653.051 1125.51 655.402 1128.26 655.402C1131.21 655.402 1133.57 653.051 1133.57 650.308C1133.57 647.369 1131.21 645.018 1128.46 645.018Z" fill="#BDCEFF"/>
<path d="M1182.07 687.927C1180.7 687.927 1179.32 689.103 1179.32 690.475C1179.32 691.846 1180.5 693.218 1181.88 693.218C1183.25 693.218 1184.62 692.042 1184.62 690.67C1184.82 689.103 1183.64 687.927 1182.07 687.927Z" fill="#EBEBEB"/>
<path d="M1182.07 687.927C1183.45 687.927 1184.62 689.103 1184.62 690.67C1184.62 692.042 1183.45 693.218 1181.88 693.218C1180.5 693.218 1179.32 692.042 1179.32 690.475C1179.52 689.103 1180.7 687.927 1182.07 687.927ZM1182.07 686.164C1179.52 686.164 1177.55 688.123 1177.55 690.67C1177.55 693.218 1179.52 695.177 1182.07 695.177C1184.62 695.177 1186.59 693.218 1186.59 690.67C1186.59 688.123 1184.62 686.164 1182.07 686.164Z" fill="#BDCEFF"/>
<path d="M1435.4 687.34C1432.85 687.34 1430.69 689.299 1430.69 691.846C1430.69 694.393 1432.65 696.549 1435.2 696.549C1437.76 696.549 1439.92 694.589 1439.92 692.042C1440.11 689.495 1437.95 687.34 1435.4 687.34Z" fill="#EBEBEB"/>
<path d="M1435.4 687.34C1437.95 687.34 1439.92 689.495 1439.92 692.042C1439.92 694.589 1437.76 696.549 1435.2 696.549C1432.65 696.549 1430.69 694.393 1430.69 691.846C1430.88 689.299 1432.85 687.34 1435.4 687.34ZM1435.4 685.576C1431.86 685.576 1428.92 688.515 1428.92 692.042C1428.92 695.569 1431.86 698.508 1435.4 698.508C1438.93 698.508 1441.88 695.569 1441.88 692.042C1441.88 688.319 1438.93 685.576 1435.4 685.576Z" fill="#BDCEFF"/>
<path d="M1487.24 491.013C1484.3 491.013 1481.94 493.364 1481.94 496.303C1481.94 499.242 1484.3 501.593 1487.24 501.593C1490.19 501.593 1492.55 499.242 1492.55 496.303C1492.55 493.364 1490.19 491.013 1487.24 491.013Z" fill="#EBEBEB"/>
<path d="M1487.24 491.013C1490.19 491.013 1492.55 493.364 1492.55 496.303C1492.55 499.242 1490.19 501.593 1487.24 501.593C1484.3 501.593 1481.94 499.242 1481.94 496.303C1481.94 493.364 1484.49 491.013 1487.24 491.013ZM1487.44 489.053C1483.51 489.053 1480.37 492.188 1480.17 496.107C1480.17 500.026 1483.32 503.161 1487.24 503.356C1491.17 503.356 1494.31 500.222 1494.51 496.303C1494.51 492.384 1491.37 489.053 1487.44 489.053Z" fill="#BDCEFF"/>
<path d="M857.851 821.359C854.709 821.359 852.156 823.906 852.156 827.041C852.156 830.176 854.709 832.723 857.851 832.723C860.993 832.723 863.546 830.176 863.546 827.041C863.546 823.906 860.993 821.359 857.851 821.359Z" fill="#EBEBEB"/>
<path d="M857.851 821.359C860.993 821.359 863.546 823.906 863.546 827.041C863.546 830.176 860.993 832.723 857.851 832.723C854.709 832.723 852.156 830.176 852.156 827.041C851.96 823.906 854.709 821.359 857.851 821.359ZM857.851 819.596C853.727 819.596 850.192 822.927 850.192 827.041C850.192 831.156 853.531 834.683 857.655 834.683C861.779 834.683 865.313 831.352 865.313 827.237C865.313 822.927 861.975 819.596 857.851 819.596Z" fill="#BDCEFF"/>
<path d="M914.801 763.167C914.801 761.403 913.426 759.836 911.462 759.836C909.695 759.836 908.124 761.207 908.124 763.167C908.124 764.93 909.499 766.497 911.462 766.497C913.23 766.497 914.801 764.93 914.801 763.167Z" fill="#EBEBEB"/>
<path d="M911.462 759.836C913.23 759.836 914.801 761.403 914.801 763.166C914.801 764.93 913.23 766.497 911.462 766.497C909.695 766.497 908.124 764.93 908.124 763.166C908.124 761.207 909.695 759.836 911.462 759.836ZM911.462 757.876C908.713 757.876 906.356 760.227 906.356 762.971C906.356 765.714 908.713 768.065 911.462 768.065C914.212 768.065 916.568 765.714 916.568 762.971C916.568 760.227 914.212 757.876 911.462 757.876Z" fill="#BDCEFF"/>
<path d="M986.872 926.38C983.926 926.38 981.569 928.732 981.569 931.475C981.569 934.414 983.926 936.765 986.675 936.765C989.621 936.765 991.977 934.414 991.977 931.671C992.174 928.732 989.817 926.576 986.872 926.38Z" fill="#EBEBEB"/>
<path d="M986.871 926.38C989.817 926.38 991.977 928.732 991.977 931.671C991.977 934.61 989.621 936.765 986.675 936.765C983.729 936.765 981.569 934.414 981.569 931.475C981.766 928.732 984.122 926.38 986.871 926.38ZM986.871 924.617C982.944 924.617 979.802 927.752 979.802 931.671C979.802 935.589 982.944 938.724 986.871 938.724C990.799 938.724 993.941 935.589 993.941 931.671C993.941 927.752 990.799 924.617 986.871 924.617Z" fill="#BDCEFF"/>
<path d="M1017.51 757.288C1014.56 757.288 1012.01 759.64 1012.01 762.775C1012.01 765.714 1014.36 768.261 1017.51 768.261C1020.45 768.261 1023.01 765.91 1023.01 762.775C1023.01 759.836 1020.45 757.288 1017.51 757.288Z" fill="#EBEBEB"/>
<path d="M1017.51 757.288C1020.45 757.288 1023 759.836 1023 762.775C1023 765.714 1020.45 768.261 1017.51 768.261C1014.56 768.261 1012.01 765.714 1012.01 762.775C1012.01 759.64 1014.56 757.288 1017.51 757.288ZM1017.51 755.525C1013.58 755.525 1010.24 758.66 1010.24 762.775C1010.24 766.693 1013.38 770.024 1017.51 770.024C1021.43 770.024 1024.77 766.889 1024.77 762.775C1024.77 758.66 1021.43 755.525 1017.51 755.525Z" fill="#BDCEFF"/>
<path d="M1174.02 830.764C1171.47 830.764 1169.31 832.919 1169.31 835.467C1169.31 838.014 1171.47 840.169 1174.02 840.169C1176.57 840.169 1178.73 838.014 1178.73 835.467C1178.73 832.919 1176.77 830.764 1174.02 830.764Z" fill="#EBEBEB"/>
<path d="M1174.02 830.764C1176.57 830.764 1178.73 832.919 1178.73 835.467C1178.73 838.014 1176.57 840.169 1174.02 840.169C1171.47 840.169 1169.31 838.014 1169.31 835.467C1169.31 832.919 1171.47 830.764 1174.02 830.764ZM1174.02 829.001C1170.48 829.001 1167.34 831.94 1167.34 835.467C1167.34 838.993 1170.29 842.128 1173.82 842.128C1177.36 842.128 1180.5 839.189 1180.5 835.663C1180.7 831.94 1177.75 829.001 1174.02 829.001Z" fill="#BDCEFF"/>
<path d="M1043.23 710.656C1041.27 710.656 1039.7 712.223 1039.7 714.183C1039.7 716.142 1041.27 717.71 1043.23 717.71C1045.2 717.71 1046.77 716.142 1046.77 714.183C1046.77 712.223 1045.2 710.656 1043.23 710.656Z" fill="#EBEBEB"/>
<path d="M1043.23 710.656C1045.2 710.656 1046.77 712.223 1046.77 714.183C1046.77 716.142 1045.2 717.71 1043.23 717.71C1041.27 717.71 1039.7 716.142 1039.7 714.183C1039.7 712.223 1041.27 710.656 1043.23 710.656ZM1043.23 708.697C1040.29 708.697 1037.93 711.048 1037.93 713.987C1037.93 716.926 1040.29 719.277 1043.23 719.277C1046.18 719.277 1048.53 716.926 1048.53 713.987C1048.53 711.244 1046.18 708.697 1043.23 708.697Z" fill="#BDCEFF"/>
<path d="M1111.37 402.254C1109.02 402.254 1107.25 404.017 1107.25 406.369C1107.25 408.72 1109.02 410.483 1111.37 410.483C1113.73 410.483 1115.5 408.72 1115.5 406.369C1115.5 404.017 1113.73 402.254 1111.37 402.254Z" fill="#EBEBEB"/>
<path d="M1111.37 402.254C1113.73 402.254 1115.5 404.213 1115.5 406.369C1115.5 408.72 1113.53 410.483 1111.37 410.483C1109.21 410.483 1107.25 408.524 1107.25 406.369C1107.25 404.017 1109.21 402.254 1111.37 402.254ZM1111.37 400.295C1108.04 400.295 1105.29 403.038 1105.29 406.173C1105.29 409.504 1108.04 412.247 1111.18 412.247C1114.52 412.247 1117.27 409.504 1117.27 406.369C1117.46 403.038 1114.71 400.295 1111.37 400.295Z" fill="#BDCEFF"/>
<path d="M1218.01 435.171C1216.24 435.171 1214.87 436.543 1214.87 438.306C1214.87 440.069 1216.24 441.441 1218.01 441.441C1219.78 441.441 1221.15 440.069 1221.15 438.306C1220.95 436.739 1219.58 435.171 1218.01 435.171Z" fill="#EBEBEB"/>
<path d="M1218.01 435.171C1219.78 435.171 1221.15 436.543 1221.15 438.306C1221.15 440.069 1219.78 441.441 1218.01 441.441C1216.24 441.441 1214.87 440.069 1214.87 438.306C1214.87 436.543 1216.24 435.171 1218.01 435.171ZM1218.01 433.408C1215.26 433.408 1213.1 435.563 1213.1 438.306C1213.1 441.049 1215.26 443.204 1218.01 443.204C1220.76 443.204 1222.92 441.049 1222.92 438.306C1222.92 435.563 1220.76 433.408 1218.01 433.408Z" fill="#BDCEFF"/>
<path d="M1229.01 163.213C1226.26 163.213 1224.1 165.368 1224.1 168.111C1224.1 170.855 1226.26 173.01 1229.01 173.01C1231.75 173.01 1233.92 170.855 1233.92 168.111C1233.92 165.368 1231.75 163.213 1229.01 163.213Z" fill="#EBEBEB"/>
<path d="M1229.01 163.213C1231.75 163.213 1233.92 165.368 1233.92 168.111C1233.92 170.855 1231.75 173.01 1229.01 173.01C1226.26 173.01 1224.1 170.855 1224.1 168.111C1224.1 165.368 1226.26 163.213 1229.01 163.213ZM1229.01 161.45C1225.27 161.45 1222.33 164.389 1222.13 168.111C1222.13 171.834 1225.08 174.773 1228.81 174.969C1232.54 174.969 1235.49 172.03 1235.68 168.307C1235.68 164.389 1232.74 161.45 1229.01 161.45Z" fill="#BDCEFF"/>
<path d="M1217.81 341.906C1221.54 341.906 1224.49 338.967 1224.49 335.244C1224.49 331.521 1221.54 328.582 1217.81 328.582C1214.08 328.582 1211.14 331.521 1211.14 335.244C1211.14 338.967 1214.08 341.906 1217.81 341.906Z" fill="#EBEBEB"/>
<path d="M1217.81 328.778C1221.54 328.778 1224.49 331.717 1224.49 335.44C1224.49 339.163 1221.54 342.102 1217.81 342.102C1214.08 342.102 1211.14 339.163 1211.14 335.44C1211.14 331.717 1214.28 328.582 1217.81 328.778ZM1217.81 326.819C1213.1 326.819 1209.37 330.542 1209.37 335.244C1209.37 339.947 1213.1 343.669 1217.81 343.669C1222.53 343.669 1226.26 339.947 1226.26 335.244C1226.45 330.738 1222.53 326.819 1217.81 326.819Z" fill="#BDCEFF"/>
<path d="M1323.66 387.559C1321.7 387.559 1320.32 389.126 1320.32 390.89C1320.32 392.849 1321.89 394.221 1323.66 394.221C1325.62 394.221 1327 392.653 1327 390.89C1327 389.126 1325.43 387.559 1323.66 387.559Z" fill="#EBEBEB"/>
<path d="M1323.66 387.559C1325.62 387.559 1327 389.126 1327 390.89C1327 392.849 1325.43 394.221 1323.66 394.221C1321.7 394.221 1320.32 392.653 1320.32 390.89C1320.32 389.126 1321.7 387.559 1323.66 387.559ZM1323.66 385.795C1320.71 385.795 1318.36 388.147 1318.36 391.086C1318.36 394.025 1320.71 396.376 1323.66 396.376C1326.61 396.376 1328.96 394.025 1328.96 391.086C1328.96 388.147 1326.61 385.795 1323.66 385.795Z" fill="#BDCEFF"/>
<path d="M1273.19 178.3C1271.03 178.3 1269.46 180.063 1269.46 182.023C1269.46 184.178 1271.23 185.746 1273.19 185.746C1275.35 185.746 1276.92 183.982 1276.92 182.023C1276.92 180.063 1275.35 178.3 1273.19 178.3Z" fill="#EBEBEB"/>
<path d="M1273.19 178.3C1275.35 178.3 1276.92 180.063 1276.92 182.023C1276.92 184.178 1275.15 185.746 1273.19 185.746C1271.03 185.746 1269.46 183.982 1269.46 182.023C1269.46 179.868 1271.03 178.3 1273.19 178.3ZM1273.19 176.341C1270.05 176.341 1267.5 178.888 1267.5 181.827C1267.5 184.962 1270.05 187.509 1272.99 187.509C1276.14 187.509 1278.69 184.962 1278.69 182.023C1278.89 178.888 1276.33 176.537 1273.19 176.341Z" fill="#BDCEFF"/>
<path d="M1491.96 899.733C1489.99 899.733 1488.42 901.301 1488.42 903.26C1488.42 905.219 1489.99 906.787 1491.96 906.787C1493.92 906.787 1495.49 905.219 1495.49 903.26C1495.49 901.301 1493.92 899.733 1491.96 899.733Z" fill="#EBEBEB"/>
<path d="M1491.96 899.733C1493.92 899.733 1495.49 901.301 1495.49 903.26C1495.49 905.219 1493.92 906.787 1491.96 906.787C1489.99 906.787 1488.42 905.219 1488.42 903.26C1488.42 901.301 1489.99 899.733 1491.96 899.733ZM1491.96 897.97C1489.01 897.97 1486.65 900.321 1486.65 903.26C1486.65 906.199 1489.01 908.55 1491.96 908.55C1494.9 908.55 1497.26 906.199 1497.26 903.26C1497.26 900.321 1494.9 897.97 1491.96 897.97Z" fill="#BDCEFF"/>
<path d="M1539.28 754.153C1541.67 754.153 1543.6 752.224 1543.6 749.843C1543.6 747.462 1541.67 745.532 1539.28 745.532C1536.9 745.532 1534.96 747.462 1534.96 749.843C1534.96 752.224 1536.9 754.153 1539.28 754.153Z" fill="#EBEBEB"/>
<path d="M1539.28 745.532C1541.64 745.532 1543.6 747.492 1543.6 749.843C1543.6 752.194 1541.64 754.153 1539.28 754.153C1536.93 754.153 1534.96 752.194 1534.96 749.843C1534.96 747.492 1536.93 745.532 1539.28 745.532ZM1539.28 743.573C1535.75 743.573 1533 746.316 1533 749.843C1533 753.37 1535.75 756.113 1539.28 756.113C1542.82 756.113 1545.57 753.37 1545.57 749.843C1545.57 746.512 1542.82 743.769 1539.28 743.573Z" fill="#BDCEFF"/>
</g>
<defs>
<clipPath id="clip0_34_551">
<rect width="1598" height="858" fill="white" transform="translate(0 106)"/>
</clipPath>
</defs>
</svg>
