<?xml version="1.0" standalone="no"?>
<!DOCTYPE svg PUBLIC "-//W3C//DTD SVG 20010904//EN"
 "http://www.w3.org/TR/2001/REC-SVG-20010904/DTD/svg10.dtd">
<svg version="1.0" xmlns="http://www.w3.org/2000/svg"
 width="700.000000pt" height="700.000000pt" viewBox="0 0 700.000000 700.000000"
 preserveAspectRatio="xMidYMid meet">
<metadata>
Created by potrace 1.14, written by Peter Selinger 2001-2017
</metadata>
<g transform="translate(0.000000,700.000000) scale(0.100000,-0.100000)"
fill="#000000" stroke="none">
<path d="M3435 6963 c-53 -31 -643 -373 -735 -425 -19 -11 -183 -106 -365
-211 -181 -105 -442 -255 -580 -335 -137 -79 -295 -170 -350 -202 -123 -72
-667 -385 -715 -412 -19 -11 -77 -45 -128 -74 l-92 -55 2 -1751 3 -1751 117
-68 c113 -65 292 -169 722 -417 280 -161 299 -172 406 -234 146 -85 754 -436
850 -491 47 -26 92 -52 100 -58 58 -36 294 -169 301 -169 5 0 9 -4 9 -10 0 -5
4 -10 9 -10 5 0 108 -57 228 -126 120 -70 233 -135 251 -146 l34 -19 281 163
c155 89 320 184 367 211 47 28 99 57 115 67 17 9 192 111 390 225 198 114 448
258 555 320 107 62 283 163 390 225 107 62 209 121 225 130 124 70 445 256
465 269 28 18 65 39 168 96 l72 40 0 75 c4 1064 -1 3435 -8 3438 -5 1 -130 72
-277 157 -147 85 -271 155 -276 155 -5 0 -9 5 -9 10 0 6 -4 10 -10 10 -5 0
-55 27 -111 60 -55 33 -102 60 -104 60 -2 0 -36 19 -77 43 -40 24 -93 55 -118
69 -25 14 -85 49 -135 78 -49 29 -103 60 -120 70 -16 9 -102 59 -190 110 -88
51 -176 101 -195 112 -19 11 -51 29 -70 40 -75 44 -547 317 -580 335 -19 11
-196 113 -393 227 -196 113 -358 206 -360 206 -1 -1 -29 -17 -62 -37z"/>
</g>
</svg>
