<svg width="164" height="162" viewBox="0 0 164 162" fill="none" xmlns="http://www.w3.org/2000/svg">
<circle cx="80.9743" cy="80.5764" r="73.5" transform="rotate(4.4361 80.9743 80.5764)" fill="white" stroke="url(#paint0_linear_32_156)" stroke-width="3"/>
<circle cx="153.301" cy="89.3011" r="10" fill="#0071FF"/>
<g clip-path="url(#clip0_32_156)">
<path d="M80.0002 105.878H91.7075C87.1953 101.61 87.3173 96.1221 87.3173 96.1221H80.0002H72.6832C72.6832 96.1221 72.8052 101.61 68.293 105.878H80.0002Z" fill="#2B4D66"/>
<path d="M107.561 96.122H52.439C51.092 96.122 50 95.0299 50 93.683V54.6586C50 53.3116 51.092 52.2196 52.439 52.2196H107.561C108.908 52.2196 110 53.3116 110 54.6586V93.683C110 95.0299 108.908 96.122 107.561 96.122Z" fill="#90D8F9"/>
<path d="M107.561 52.2196H105.244C106.591 52.2196 107.683 53.3116 107.683 54.6586V93.683C107.683 95.0301 106.591 96.122 105.244 96.122H107.561C108.908 96.122 110 95.0301 110 93.683V54.6586C110 53.3116 108.908 52.2196 107.561 52.2196Z" fill="#75CEF9"/>
<path d="M53.9023 87.3538V57.3292C53.9023 56.6624 54.4428 56.1219 55.1096 56.1219H104.89C105.557 56.1219 106.098 56.6624 106.098 57.3292V87.3537C106.098 88.0205 105.557 88.561 104.89 88.561H55.1096C54.4428 88.561 53.9023 88.0205 53.9023 87.3538Z" fill="#ECF4FF"/>
<path d="M64.1465 109.049V106.61C64.1465 106.206 64.474 105.878 64.8782 105.878H95.1221C95.5261 105.878 95.8538 106.206 95.8538 106.61V109.049C95.8538 109.453 95.5262 109.781 95.1221 109.781H64.8782C64.4741 109.781 64.1465 109.453 64.1465 109.049Z" fill="#4A80AA"/>
<path d="M95.122 105.878H91.4634C91.8674 105.878 92.1951 106.206 92.1951 106.61V109.049C92.1951 109.453 91.8676 109.781 91.4634 109.781H95.122C95.526 109.781 95.8537 109.453 95.8537 109.049V106.61C95.8537 106.206 95.526 105.878 95.122 105.878Z" fill="#407093"/>
<path d="M83.415 66.9054H68.2931C67.7929 66.9054 67.3877 66.5 67.3877 66C67.3877 65.4998 67.793 65.0946 68.2931 65.0946H83.415C83.9151 65.0946 84.3204 65.5 84.3204 66C84.3204 66.5002 83.915 66.9054 83.415 66.9054Z" fill="#4A80AA"/>
<path d="M87.8048 62.0275H75.3658C74.8657 62.0275 74.4604 61.6221 74.4604 61.1221C74.4604 60.6219 74.8658 60.2167 75.3658 60.2167H87.8048C88.305 60.2167 88.7102 60.622 88.7102 61.1221C88.7102 61.6221 88.3049 62.0275 87.8048 62.0275Z" fill="#4A80AA"/>
<path d="M71.0975 62.0275H68.2926C67.7924 62.0275 67.3872 61.6221 67.3872 61.1221C67.3872 60.6219 67.7926 60.2167 68.2926 60.2167H71.0975C71.5976 60.2167 72.0029 60.622 72.0029 61.1221C72.003 61.6221 71.5976 62.0275 71.0975 62.0275Z" fill="#4A80AA"/>
<path d="M83.415 75.6859H68.2931C67.7929 75.6859 67.3877 75.2806 67.3877 74.7805C67.3877 74.2805 67.793 73.8751 68.2931 73.8751H83.415C83.9151 73.8751 84.3204 74.2805 84.3204 74.7805C84.3204 75.2806 83.915 75.6859 83.415 75.6859Z" fill="#4A80AA"/>
<path d="M87.8048 70.8078H75.3658C74.8657 70.8078 74.4604 70.4025 74.4604 69.9025C74.4604 69.4024 74.8658 68.9971 75.3658 68.9971H87.8048C88.305 68.9971 88.7102 69.4024 88.7102 69.9025C88.7102 70.4025 88.3049 70.8078 87.8048 70.8078Z" fill="#4A80AA"/>
<path d="M71.0975 70.8078H68.2926C67.7924 70.8078 67.3872 70.4025 67.3872 69.9025C67.3872 69.4024 67.7926 68.9971 68.2926 68.9971H71.0975C71.5976 68.9971 72.0029 69.4024 72.0029 69.9025C72.0029 70.4025 71.5976 70.8078 71.0975 70.8078Z" fill="#4A80AA"/>
<path d="M63.4146 60.2166H57.8048C57.3046 60.2166 56.8994 60.6219 56.8994 61.1219V66C56.8994 66.5001 57.3048 66.9054 57.8048 66.9054H63.4146C63.9147 66.9054 64.32 66.5 64.32 66V61.1219C64.32 60.6219 63.9146 60.2166 63.4146 60.2166Z" fill="#78D090"/>
<path d="M63.4146 68.9969H57.8048C57.3046 68.9969 56.8994 69.4023 56.8994 69.9023V74.7804C56.8994 75.2805 57.3048 75.6858 57.8048 75.6858H63.4146C63.9147 75.6858 64.32 75.2804 64.32 74.7804V69.9023C64.32 69.4023 63.9146 68.9969 63.4146 68.9969Z" fill="#78D090"/>
<path d="M63.4146 77.7775H57.8048C57.3046 77.7775 56.8994 78.1828 56.8994 78.6829V83.561C56.8994 84.0612 57.3048 84.4664 57.8048 84.4664H63.4146C63.9147 84.4664 64.32 84.0611 64.32 83.561V78.6829C64.32 78.1828 63.9146 77.7775 63.4146 77.7775Z" fill="#78D090"/>
<path d="M83.415 84.4664H68.2931C67.7929 84.4664 67.3877 84.0611 67.3877 83.561C67.3877 83.061 67.793 82.6556 68.2931 82.6556H83.415C83.9151 82.6556 84.3204 83.061 84.3204 83.561C84.3204 84.0611 83.915 84.4664 83.415 84.4664Z" fill="#4A80AA"/>
<path d="M87.8048 79.5884H75.3658C74.8657 79.5884 74.4604 79.183 74.4604 78.683C74.4604 78.1829 74.8658 77.7776 75.3658 77.7776H87.8048C88.305 77.7776 88.7102 78.1829 88.7102 78.683C88.7102 79.183 88.3049 79.5884 87.8048 79.5884Z" fill="#4A80AA"/>
<path d="M71.0975 79.5884H68.2926C67.7924 79.5884 67.3872 79.183 67.3872 78.683C67.3872 78.1829 67.7926 77.7776 68.2926 77.7776H71.0975C71.5976 77.7776 72.0029 78.1829 72.0029 78.683C72.0029 79.183 71.5976 79.5884 71.0975 79.5884Z" fill="#4A80AA"/>
<path d="M102.455 75.3524L91.9674 72.2061C91.6482 72.1102 91.3026 72.1977 91.067 72.4331C90.8315 72.6686 90.7442 73.0146 90.84 73.3336L93.9863 83.8214C94.097 84.1902 94.4287 84.4486 94.8132 84.4657C94.8268 84.4664 94.8403 84.4666 94.8537 84.4666C95.2224 84.4666 95.5563 84.2423 95.6942 83.8974L97.6475 79.0138L102.531 77.0604C102.889 76.9174 103.117 76.564 103.099 76.1793C103.082 75.7946 102.824 75.4629 102.455 75.3524Z" fill="#E490B7"/>
</g>
<defs>
<linearGradient id="paint0_linear_32_156" x1="76.3768" y1="21.3137" x2="83.1572" y2="141.555" gradientUnits="userSpaceOnUse">
<stop stop-color="#B0D3FF"/>
<stop offset="0.632687" stop-color="#D8E9FF" stop-opacity="0.1"/>
<stop offset="1" stop-color="#D8E9FF" stop-opacity="0"/>
</linearGradient>
<clipPath id="clip0_32_156">
<rect width="60" height="60" fill="white" transform="translate(50 51)"/>
</clipPath>
</defs>
</svg>
