<svg width="164" height="162" viewBox="0 0 164 162" fill="none" xmlns="http://www.w3.org/2000/svg">
<circle cx="81.0257" cy="80.5763" r="73.5" transform="rotate(-175.564 81.0257 80.5763)" fill="white" stroke="url(#paint0_linear_32_66)" stroke-width="3"/>
<circle cx="153.301" cy="72.454" r="10" transform="rotate(-180 153.301 72.454)" fill="#0071FF"/>
<path d="M62.4219 84.6683C61.4505 84.6683 60.6641 83.8819 60.6641 82.9105V68.848C60.6641 67.8766 61.4505 67.0902 62.4219 67.0902H69.4531C70.4245 67.0902 71.2109 67.8766 71.2109 68.848C71.2109 69.8194 70.4245 70.6058 69.4531 70.6058H64.1797V82.9105C64.1797 83.8819 63.3932 84.6683 62.4219 84.6683Z" fill="#A8EBFA"/>
<path d="M97.5781 84.6683C96.6068 84.6683 95.8203 83.8819 95.8203 82.9105V70.6058H90.5469C89.5755 70.6058 88.7891 69.8194 88.7891 68.848C88.7891 67.8766 89.5755 67.0902 90.5469 67.0902H97.5781C98.5495 67.0902 99.3359 67.8766 99.3359 68.848V82.9105C99.3359 83.8819 98.5495 84.6683 97.5781 84.6683Z" fill="#76E2F8"/>
<path d="M109.754 88.3245L103.73 88.184L97.5781 95.2152L94.0625 102.071L97.5781 109.278C97.8944 109.278 98.1755 109.207 98.457 109.031L109.156 102.774C109.227 102.739 109.297 102.669 109.367 102.633C109.754 102.282 110 101.754 110 101.262V89.2034C110 88.8871 109.93 88.5708 109.754 88.3245Z" fill="#5A69E6"/>
<path d="M91.4258 88.184L85.5197 88.3245C85.3439 88.606 85.2734 88.8871 85.2734 89.2034V101.262C85.2734 101.754 85.5197 102.282 85.9061 102.633C85.9766 102.668 96.6992 109.031 96.6992 109.031C96.9807 109.207 97.2618 109.278 97.5781 109.278V95.2152L91.4258 88.184Z" fill="#7984EB"/>
<path d="M109.754 88.3245L97.5779 95.2152L85.5195 88.3245C85.5543 88.2897 85.5896 88.2192 85.6248 88.184C85.7654 87.9729 85.9411 87.8324 86.1522 87.6919L96.699 81.399C96.9806 81.2232 97.2964 81.1527 97.5779 81.1527C97.8595 81.1527 98.1753 81.2232 98.4568 81.399L109.121 87.6919C109.332 87.8324 109.508 88.0082 109.648 88.184C109.684 88.2192 109.718 88.2897 109.754 88.3245Z" fill="#979FEF"/>
<path d="M74.4803 88.3245L68.5742 88.184L62.4219 95.2152L58.9062 102.071L62.4219 109.278C62.7382 109.278 63.0193 109.207 63.3008 109.031L73.8829 102.774C73.9534 102.739 74.0234 102.669 74.0939 102.633C74.4803 102.282 74.7266 101.754 74.7266 101.262V89.2034C74.7266 88.8871 74.6561 88.5708 74.4803 88.3245Z" fill="#5A69E6"/>
<path d="M56.2695 88.184L50.2463 88.3245C50.0705 88.606 50 88.8871 50 89.2034V101.262C50 101.754 50.2463 102.282 50.6326 102.633C50.7031 102.668 61.543 109.031 61.543 109.031C61.8245 109.207 62.1056 109.278 62.4219 109.278V95.2152L56.2695 88.184Z" fill="#7984EB"/>
<path d="M74.4801 88.3245L62.4217 95.2152L50.2461 88.3245C50.2809 88.2897 50.3161 88.2192 50.3514 88.184C50.4919 87.9729 50.6677 87.8324 50.8787 87.6919L61.5428 81.399C61.8243 81.2232 62.1402 81.1527 62.4217 81.1527C62.7032 81.1527 63.0191 81.2232 63.3006 81.399L73.8475 87.6919C74.0585 87.8324 74.2343 88.0082 74.3748 88.184C74.4101 88.2192 74.4449 88.2897 74.4801 88.3245Z" fill="#B5BAF3"/>
<path d="M92.0584 60.1995L86.1523 60.059L80 67.0902L76.4844 73.9457L80 81.1527C80.3163 81.1527 80.5974 81.0822 80.8789 80.9064L91.461 74.6488C91.5315 74.6136 91.6016 74.5435 91.6721 74.5083C92.0584 74.1567 92.3047 73.6294 92.3047 73.1373V61.0784C92.3047 60.7621 92.2342 60.4458 92.0584 60.1995Z" fill="#5A69E6"/>
<path d="M73.8477 60.059L67.9416 60.1995C67.7658 60.481 67.6953 60.7621 67.6953 61.0784V73.1368C67.6953 73.6294 67.9416 74.1567 68.3279 74.5083C68.3984 74.5431 79.1211 80.9064 79.1211 80.9064C79.4026 81.0822 79.6837 81.1527 80 81.1527V67.0902L73.8477 60.059Z" fill="#7984EB"/>
<path d="M92.0582 60.1995L79.9998 67.0902L67.9414 60.1995C67.9762 60.1647 68.0114 60.0942 68.0467 60.059C68.1872 59.8479 68.363 59.7074 68.574 59.5669L79.1209 53.274C79.4024 53.0982 79.7183 53.0277 79.9998 53.0277C80.2813 53.0277 80.5972 53.0982 80.8787 53.274L91.4256 59.5669C91.6366 59.7074 91.8124 59.8832 91.9529 60.059C91.9882 60.0942 92.023 60.1647 92.0582 60.1995Z" fill="#B5BAF3"/>
<path d="M92.0584 60.1995L80 67.0902V53.0277C80.2815 53.0277 80.5974 53.0982 80.8789 53.274L91.4258 59.5669C91.6368 59.7074 91.8126 59.8832 91.9531 60.059C91.9884 60.0942 92.0232 60.1647 92.0584 60.1995Z" fill="#979FEF"/>
<defs>
<linearGradient id="paint0_linear_32_66" x1="76.4282" y1="21.3137" x2="83.2087" y2="141.555" gradientUnits="userSpaceOnUse">
<stop stop-color="#B0D3FF"/>
<stop offset="0.632687" stop-color="#D8E9FF" stop-opacity="0.1"/>
<stop offset="1" stop-color="#D8E9FF" stop-opacity="0"/>
</linearGradient>
</defs>
</svg>
