<svg width="165" height="162" viewBox="0 0 165 162" fill="none" xmlns="http://www.w3.org/2000/svg">
<circle cx="84.0262" cy="81.4236" r="73.5" transform="rotate(-175.564 84.0262 81.4236)" fill="white" stroke="url(#paint0_linear_32_215)" stroke-width="3"/>
<circle cx="10" cy="73.3013" r="10" transform="rotate(-180 10 73.3013)" fill="#0071FF"/>
<path d="M97.8755 55.4062V97.0312C97.8809 98.3938 97.4782 99.7268 96.7192 100.858C96.0886 101.815 95.2302 102.6 94.2211 103.143C93.212 103.686 92.0838 103.97 90.938 103.969H67.813C66.9017 103.97 65.9992 103.791 65.157 103.443C64.3149 103.094 63.5498 102.583 62.9054 101.939C62.261 101.294 61.75 100.529 61.4017 99.6872C61.0534 98.8451 60.8746 97.9426 60.8755 97.0312V55.4062C60.8755 53.5663 61.6064 51.8017 62.9074 50.5007C64.2085 49.1997 65.9731 48.4688 67.813 48.4688H90.938C92.7779 48.4688 94.5425 49.1997 95.8436 50.5007C97.1446 51.8017 97.8755 53.5663 97.8755 55.4062Z" fill="#5AAAE7"/>
<path d="M75.7911 94.3834C75.7911 94.992 75.6317 95.59 75.3286 96.1178L70.7961 103.969H68.5067L67.813 102.812L73.0161 93.8053C73.3192 93.2775 73.4786 92.6795 73.4786 92.0709C73.4814 91.7298 73.4307 91.3903 73.3283 91.0649C73.5843 91.1351 73.8294 91.2401 74.0567 91.3771C74.5858 91.6801 75.0251 92.118 75.3298 92.6461C75.6344 93.1742 75.7936 93.7737 75.7911 94.3834Z" fill="#3D9AE2"/>
<path d="M96.7192 88.9375V100.858C96.0886 101.815 95.2301 102.6 94.2211 103.143C93.212 103.686 92.0838 103.97 90.938 103.969H89.7817V88.9375C89.7817 88.0175 90.1472 87.1352 90.7977 86.4847C91.4482 85.8342 92.3305 85.4688 93.2505 85.4688C94.1705 85.4688 95.0527 85.8342 95.7033 86.4847C96.3538 87.1352 96.7192 88.0175 96.7192 88.9375Z" fill="#3D9AE2"/>
<path d="M75.6986 95.1697C75.6251 95.503 75.5003 95.8228 75.3286 96.1178L74.7505 97.1122V97.0312C74.7489 96.7276 74.8085 96.4268 74.9257 96.1467C75.0429 95.8665 75.2153 95.6129 75.4327 95.4009C75.5159 95.3178 75.6048 95.2405 75.6986 95.1697Z" fill="#D8D7DA"/>
<path d="M73.4786 92.0709C73.4795 91.3066 73.2279 90.5634 72.7629 89.9568C72.2979 89.3502 71.6456 88.9141 70.9074 88.7164C70.1691 88.5186 69.3862 88.5703 68.6802 88.8632C67.9743 89.1562 67.3849 89.6741 67.0036 90.3365L61.4883 99.8871C61.083 98.9897 60.8741 98.016 60.8755 97.0312V78.5543C60.4921 78.6075 60.1282 78.756 59.8171 78.9863C59.506 79.2166 59.2576 79.5213 59.0949 79.8724L53.8455 91.2615C53.143 92.7758 52.78 94.4253 52.7817 96.0946V116.687L71.2817 116.676V110.502C71.2793 109.243 70.9356 108.008 70.2874 106.929L68.5067 103.969L67.813 102.812L73.0161 93.8053C73.3192 93.2775 73.4786 92.6795 73.4786 92.0709Z" fill="#FFC477"/>
<path d="M81.688 94.7188C82.3007 94.7206 82.8879 94.9648 83.3212 95.3981C83.7544 95.8314 83.9987 96.4185 84.0005 97.0312C83.9959 97.6432 83.7509 98.2287 83.3182 98.6614C82.8855 99.0941 82.2999 99.3392 81.688 99.3438H77.063C76.4502 99.3419 75.8631 99.0977 75.4298 98.6644C74.9965 98.2311 74.7523 97.644 74.7505 97.0312C74.755 96.4193 75.0001 95.8338 75.4328 95.4011C75.8655 94.9684 76.4511 94.7233 77.063 94.7188H81.688Z" fill="#E6E7E8"/>
<path d="M108.282 102.812C108.282 101.893 108.647 101.01 109.298 100.36C109.948 99.7092 110.831 99.3438 111.751 99.3438C112.671 99.3438 113.553 99.7092 114.203 100.36C114.854 101.01 115.219 101.893 115.219 102.812V116.688H84.1279L79.1444 108.062C78.8399 107.534 78.6796 106.936 78.6797 106.327C78.6798 105.718 78.8403 105.12 79.145 104.592C79.4497 104.065 79.8879 103.627 80.4155 103.323C80.9431 103.018 81.5416 102.858 82.1507 102.859C82.7604 102.856 83.3598 103.015 83.8879 103.32C84.416 103.625 84.8539 104.064 85.1569 104.593L87.4694 108.594V86.625C87.4694 85.705 87.8349 84.8227 88.4854 84.1722C89.1359 83.5217 90.0182 83.1562 90.9382 83.1562C91.8581 83.1562 92.7404 83.5217 93.3909 84.1722C94.0415 84.8227 94.4069 85.705 94.4069 86.625V100.5C94.4069 99.58 94.7724 98.6977 95.4229 98.0472C96.0734 97.3967 96.9557 97.0312 97.8757 97.0312C98.7956 97.0312 99.6779 97.3967 100.328 98.0472C100.979 98.6977 101.344 99.58 101.344 100.5V101.656C101.344 100.736 101.71 99.854 102.36 99.2035C103.011 98.553 103.893 98.1875 104.813 98.1875C105.733 98.1875 106.615 98.553 107.266 99.2035C107.916 99.854 108.282 100.736 108.282 101.656V102.812Z" fill="#FFC477"/>
<path d="M81.688 85.4688C87.4352 85.4688 92.0942 80.8097 92.0942 75.0625C92.0942 69.3153 87.4352 64.6562 81.688 64.6562C75.9408 64.6562 71.2817 69.3153 71.2817 75.0625C71.2817 80.8097 75.9408 85.4688 81.688 85.4688Z" fill="#3D9AE2"/>
<path d="M79.3755 83.1562C85.1227 83.1562 89.7817 78.4972 89.7817 72.75C89.7817 67.0028 85.1227 62.3438 79.3755 62.3438C73.6283 62.3438 68.9692 67.0028 68.9692 72.75C68.9692 78.4972 73.6283 83.1562 79.3755 83.1562Z" fill="#FFD422"/>
<path d="M70.1255 51.9375H72.438V54.25H70.1255V51.9375Z" fill="#3D9AE2"/>
<path d="M74.7505 51.9375H84.0005V54.25H74.7505V51.9375Z" fill="#3D9AE2"/>
<path d="M80.5317 71.5938H78.2192C77.9126 71.5938 77.6185 71.4719 77.4016 71.2551C77.1848 71.0383 77.063 70.7442 77.063 70.4375C77.063 70.1308 77.1848 69.8367 77.4016 69.6199C77.6185 69.4031 77.9126 69.2812 78.2192 69.2812H80.5317C80.8384 69.2812 81.1325 69.4031 81.3493 69.6199C81.5662 69.8367 81.688 70.1308 81.688 70.4375H84.0005C84.0005 69.5175 83.635 68.6352 82.9845 67.9847C82.334 67.3342 81.4517 66.9688 80.5317 66.9688V65.8125H78.2192V66.9688C77.2993 66.9688 76.417 67.3342 75.7665 67.9847C75.1159 68.6352 74.7505 69.5175 74.7505 70.4375C74.7505 71.3575 75.1159 72.2398 75.7665 72.8903C76.417 73.5408 77.2993 73.9062 78.2192 73.9062H80.5317C80.8384 73.9062 81.1325 74.0281 81.3493 74.2449C81.5662 74.4617 81.688 74.7558 81.688 75.0625C81.688 75.3692 81.5662 75.6633 81.3493 75.8801C81.1325 76.0969 80.8384 76.2188 80.5317 76.2188H78.2192C77.9126 76.2188 77.6185 76.0969 77.4016 75.8801C77.1848 75.6633 77.063 75.3692 77.063 75.0625H74.7505C74.7505 75.9825 75.1159 76.8648 75.7665 77.5153C76.417 78.1658 77.2993 78.5312 78.2192 78.5312V79.6875H80.5317V78.5312C81.4517 78.5312 82.334 78.1658 82.9845 77.5153C83.635 76.8648 84.0005 75.9825 84.0005 75.0625C84.0005 74.1425 83.635 73.2602 82.9845 72.6097C82.334 71.9592 81.4517 71.5938 80.5317 71.5938Z" fill="#FF5023"/>
<path d="M51.9644 60.37L48.4956 63.8388L50.1305 65.4737L51.6256 63.9787V77.375H53.9381V63.9787L55.4331 65.4737L57.068 63.8388L53.5993 60.37C53.3825 60.1533 53.0884 60.0315 52.7818 60.0315C52.4752 60.0315 52.1812 60.1533 51.9644 60.37Z" fill="#FF9811"/>
<path d="M110.256 63.8388L106.787 60.37C106.57 60.1533 106.276 60.0315 105.969 60.0315C105.663 60.0315 105.369 60.1533 105.152 60.37L101.683 63.8388L103.318 65.4737L104.813 63.9787V77.375H107.126V63.9787L108.621 65.4737L110.256 63.8388Z" fill="#FF9811"/>
<path d="M104.813 79.6875H107.125V82H104.813V79.6875Z" fill="#FF9811"/>
<path d="M104.813 84.3125H107.125V86.625H104.813V84.3125Z" fill="#FF9811"/>
<path d="M51.6255 79.6875H53.938V82H51.6255V79.6875Z" fill="#FF9811"/>
<path d="M72.4383 116.676H70.1258V110.507C70.1259 109.457 69.8397 108.426 69.2979 107.525L66.8224 103.409C66.7159 103.232 66.6586 103.03 66.6566 102.824C66.6546 102.618 66.7078 102.414 66.8108 102.236L71.9353 93.3602C72.101 93.0834 72.2099 92.7764 72.2557 92.457C72.3014 92.1377 72.2831 91.8124 72.2017 91.5002C72.1203 91.188 71.9775 90.8952 71.7817 90.6388C71.5859 90.3825 71.3409 90.1677 71.0612 90.007C70.5334 89.7386 69.9227 89.6828 69.355 89.8513C68.7873 90.0197 68.3058 90.3995 68.0098 90.9124L61.6504 101.927C61.5745 102.059 61.4732 102.175 61.3524 102.268C61.2316 102.36 61.0936 102.428 60.9464 102.468C60.7992 102.507 60.6457 102.517 60.4946 102.497C60.3436 102.476 60.1981 102.427 60.0664 102.35C59.9347 102.274 59.8194 102.173 59.7268 102.052C59.6343 101.932 59.5664 101.794 59.5271 101.647C59.4878 101.501 59.4778 101.348 59.4978 101.197C59.5177 101.046 59.5671 100.901 59.6432 100.769L66.0026 89.7561C66.3483 89.1596 66.8227 88.6477 67.3913 88.2577C67.9599 87.8677 68.6083 87.6095 69.2893 87.5018C69.9703 87.3941 70.6668 87.4398 71.328 87.6353C71.9891 87.8309 72.5983 88.1715 73.1112 88.6323C73.9011 89.3633 74.4158 90.3436 74.5693 91.4088C74.7227 92.4741 74.5055 93.5598 73.9541 94.484L69.151 102.802L71.282 106.333C72.0393 107.593 72.439 109.036 72.4383 110.506V116.676Z" fill="#FFB655"/>
<path d="M95.563 100.5C95.563 99.8614 95.0453 99.3438 94.4067 99.3438C93.7682 99.3438 93.2505 99.8614 93.2505 100.5V105.125C93.2505 105.764 93.7682 106.281 94.4067 106.281C95.0453 106.281 95.563 105.764 95.563 105.125V100.5Z" fill="#FFB655"/>
<path d="M102.5 100.5C102.5 99.8614 101.983 99.3438 101.344 99.3438C100.706 99.3438 100.188 99.8614 100.188 100.5V105.125C100.188 105.764 100.706 106.281 101.344 106.281C101.983 106.281 102.5 105.764 102.5 105.125V100.5Z" fill="#FFB655"/>
<path d="M109.438 101.656C109.438 101.018 108.92 100.5 108.282 100.5C107.643 100.5 107.125 101.018 107.125 101.656V105.125C107.125 105.764 107.643 106.281 108.282 106.281C108.92 106.281 109.438 105.764 109.438 105.125V101.656Z" fill="#FFB655"/>
<defs>
<linearGradient id="paint0_linear_32_215" x1="79.4287" y1="22.161" x2="86.2091" y2="142.402" gradientUnits="userSpaceOnUse">
<stop stop-color="#B0D3FF"/>
<stop offset="0.632687" stop-color="#D8E9FF" stop-opacity="0.1"/>
<stop offset="1" stop-color="#D8E9FF" stop-opacity="0"/>
</linearGradient>
</defs>
</svg>
