<svg width="164" height="162" viewBox="0 0 164 162" fill="none" xmlns="http://www.w3.org/2000/svg">
<circle cx="83.0257" cy="80.5763" r="73.5" transform="rotate(-175.564 83.0257 80.5763)" fill="white" stroke="url(#paint0_linear_32_51)" stroke-width="3"/>
<circle cx="10" cy="72.454" r="10" transform="rotate(-180 10 72.454)" fill="#0071FF"/>
<g clip-path="url(#clip0_32_51)">
<path d="M105.852 75.8793C103.566 75.8793 101.598 77.3557 100.895 79.3949L97.0625 81.1527L100.895 82.9105C101.598 84.9495 103.566 86.4261 105.852 86.4261C108.77 86.4261 111.125 84.0706 111.125 81.1527C111.125 78.2346 108.77 75.8793 105.852 75.8793ZM90.0312 70.6058L86.5156 68.848V58.3011C86.5156 54.4338 83.3514 51.1527 79.4844 51.1527C76.9532 51.1527 74.6328 52.641 73.4025 54.8207C69.465 55.1721 66.2656 58.1604 65.5625 61.9573C61.4844 62.7308 58.3906 66.3167 58.3906 70.6058C58.3906 71.6957 58.6016 72.7504 58.9882 73.7698C56.457 75.3518 54.875 78.1293 54.875 81.1527C54.875 84.1761 56.457 86.9534 58.9882 88.5354C58.6016 89.5551 58.3906 90.6097 58.3906 91.6996C58.3906 95.9885 61.4844 99.5746 65.5624 100.348C66.2655 104.145 69.4648 107.133 73.4023 107.485C74.6328 109.664 76.9532 111.153 79.4844 111.153C83.3514 111.153 86.5156 107.871 86.5156 104.004V93.4574L90.0312 91.8649L86.5156 89.9418V72.3636L90.0312 70.6058ZM100.578 65.0159L102.336 68.848L104.094 65.0159C106.133 64.3127 107.609 62.344 107.609 60.059C107.609 57.1409 105.254 54.7855 102.336 54.7855C99.418 54.7855 97.0625 57.1409 97.0625 60.059C97.0625 62.344 98.5391 64.3127 100.578 65.0159ZM104.094 97.2893L102.336 93.4574L100.578 97.2893C98.5391 97.9924 97.0625 99.9612 97.0625 102.246C97.0625 105.164 99.418 107.52 102.336 107.52C105.254 107.52 107.609 105.164 107.609 102.246C107.609 99.9612 106.133 97.9924 104.094 97.2893Z" fill="url(#paint1_linear_32_51)"/>
<path d="M102.336 65.3324C101.703 65.3324 101.141 65.2268 100.578 65.0159V68.848H86.5156V72.3636H102.336C103.32 72.3636 104.094 71.5901 104.094 70.6058V65.0159C103.531 65.2268 102.969 65.3324 102.336 65.3324ZM102.336 89.9418H86.5156V93.4574H100.578V97.2893C101.141 97.0784 101.703 96.973 102.336 96.973C102.969 96.973 103.531 97.0784 104.094 97.2893V91.6996C104.094 90.7151 103.32 89.9418 102.336 89.9418ZM100.578 81.1527C100.578 80.5199 100.684 79.9573 100.895 79.3949H82.8242C82.0155 75.3871 78.4648 72.3636 74.2109 72.3636C73.2264 72.3636 72.4531 73.137 72.4531 74.1215C72.4531 75.1057 73.2264 75.8793 74.2109 75.8793C77.1289 75.8793 79.4844 78.2346 79.4844 81.1527C79.4844 84.0706 77.1289 86.4261 74.2109 86.4261C73.2264 86.4261 72.4531 87.1995 72.4531 88.1839C72.4531 89.1682 73.2264 89.9418 74.2109 89.9418C78.465 89.9418 82.0155 86.9183 82.8242 82.9105H100.895C100.684 82.3479 100.578 81.7855 100.578 81.1527Z" fill="url(#paint2_linear_32_51)"/>
</g>
<defs>
<linearGradient id="paint0_linear_32_51" x1="78.4282" y1="21.3137" x2="85.2087" y2="141.555" gradientUnits="userSpaceOnUse">
<stop stop-color="#B0D3FF"/>
<stop offset="0.632687" stop-color="#D8E9FF" stop-opacity="0.1"/>
<stop offset="1" stop-color="#D8E9FF" stop-opacity="0"/>
</linearGradient>
<linearGradient id="paint1_linear_32_51" x1="83" y1="111.153" x2="83" y2="51.1527" gradientUnits="userSpaceOnUse">
<stop stop-color="#A93AFF"/>
<stop offset="1" stop-color="#FF81FF"/>
</linearGradient>
<linearGradient id="paint2_linear_32_51" x1="88.2734" y1="97.2893" x2="88.2734" y2="65.0159" gradientUnits="userSpaceOnUse">
<stop stop-color="#FFBEF9"/>
<stop offset="1" stop-color="#FFF1FF"/>
</linearGradient>
<clipPath id="clip0_32_51">
<rect width="60" height="60" fill="white" transform="translate(53 51.1527)"/>
</clipPath>
</defs>
</svg>
