<svg width="165" height="162" viewBox="0 0 165 162" fill="none" xmlns="http://www.w3.org/2000/svg">
<circle cx="80.9743" cy="80.5764" r="73.5" transform="rotate(4.43611 80.9743 80.5764)" fill="white" stroke="url(#paint0_linear_32_194)" stroke-width="3"/>
<g clip-path="url(#clip0_32_194)">
<path d="M109.628 90.4661C109.295 90.0394 108.784 89.7902 108.242 89.7902H69.908C69.1014 89.7902 68.3983 90.3392 68.2027 91.1216L66.7776 96.822H57.032C56.2254 96.822 55.5223 97.371 55.3267 98.1535L53.5687 105.185C53.4373 105.711 53.5553 106.267 53.8885 106.694C54.2216 107.12 54.7327 107.37 55.274 107.37H104.726C105.533 107.37 106.236 106.821 106.432 106.038L109.948 91.9742C110.079 91.4491 109.961 90.8927 109.628 90.4661Z" fill="#FEBF01"/>
<path d="M109.628 90.4661C109.294 90.0394 108.783 89.7902 108.242 89.7902H81.7578V107.37H104.726C105.533 107.37 106.236 106.821 106.431 106.038L109.947 91.9742C110.079 91.4491 109.961 90.8927 109.628 90.4661Z" fill="#F4AE00"/>
<path d="M73.0512 83.4342C72.718 83.0076 72.207 82.7582 71.6657 82.7582H55.2738C54.4672 82.7582 53.7641 83.3072 53.5684 84.0897L50.0525 98.1536C49.9212 98.6786 50.0392 99.2351 50.3722 99.6617C50.7054 100.088 51.2163 100.338 51.7577 100.338H68.1496C68.9562 100.338 69.6593 99.7887 69.8549 99.0061L73.3709 84.9422C73.5023 84.4172 73.3843 83.8608 73.0512 83.4342Z" fill="#FFDA2D"/>
<path d="M63.4967 91.548C63.4967 92.5188 62.7097 93.3058 61.7388 93.3058C60.7679 93.3058 59.981 92.5188 59.981 91.548C59.981 90.5771 60.7679 89.79 61.7388 89.79C62.7097 89.79 63.4967 90.5771 63.4967 91.548Z" fill="#DFF8FF"/>
<path d="M98.28 100.338H76.9395C75.9687 100.338 75.1816 99.5506 75.1816 98.5798C75.1816 97.6091 75.9687 96.822 76.9395 96.822H98.28C99.2508 96.822 100.038 97.6091 100.038 98.5798C100.038 99.5506 99.2509 100.338 98.28 100.338Z" fill="#DFF8FF"/>
<path d="M98.2801 96.822H81.7578V100.338H98.2801C99.2509 100.338 100.038 99.5506 100.038 98.5798C100.038 97.6091 99.251 96.822 98.2801 96.822Z" fill="#D8EAEF"/>
<path d="M109.628 62.3383C109.295 61.9116 108.784 61.6622 108.242 61.6622H69.908C69.1014 61.6622 68.3983 62.2113 68.2027 62.9937L66.7776 68.6942H57.032C56.2254 68.6942 55.5223 69.2432 55.3267 70.0257L53.5687 77.0576C53.4373 77.5827 53.5553 78.1391 53.8885 78.5658C54.2216 78.9925 54.7327 79.2419 55.274 79.2419H104.726C105.533 79.2419 106.236 78.6929 106.432 77.9104L109.948 63.8465C110.079 63.3214 109.961 62.765 109.628 62.3383Z" fill="#398CE9"/>
<path d="M109.628 62.3383C109.294 61.9116 108.783 61.6622 108.242 61.6622H81.7578V79.2418H104.726C105.533 79.2418 106.236 78.6927 106.431 77.9103L109.947 63.8464C110.079 63.3214 109.961 62.765 109.628 62.3383Z" fill="#2662D4"/>
<path d="M73.0512 55.3063C72.718 54.8796 72.207 54.6304 71.6657 54.6304H55.2738C54.4672 54.6304 53.7641 55.1794 53.5684 55.9619L50.0525 70.0258C49.9212 70.5508 50.0392 71.1073 50.3722 71.5338C50.7055 71.9605 51.2165 72.2098 51.7579 72.2098H68.1497C68.9563 72.2098 69.6594 71.6608 69.855 70.8783L73.371 56.8144C73.5023 56.2894 73.3843 55.733 73.0512 55.3063Z" fill="#4BB6FF"/>
<path d="M98.28 72.2098H76.9395C75.9687 72.2098 75.1816 71.4228 75.1816 70.452C75.1816 69.4812 75.9687 68.6942 76.9395 68.6942H98.28C99.2508 68.6942 100.038 69.4812 100.038 70.452C100.038 71.4228 99.2509 72.2098 98.28 72.2098Z" fill="#DFF8FF"/>
<path d="M61.7388 65.1785C62.7096 65.1785 63.4966 64.3915 63.4966 63.4207C63.4966 62.4498 62.7096 61.6628 61.7388 61.6628C60.768 61.6628 59.981 62.4498 59.981 63.4207C59.981 64.3915 60.768 65.1785 61.7388 65.1785Z" fill="#DFF8FF"/>
<path d="M98.2801 68.6942H81.7578V72.2098H98.2801C99.2509 72.2098 100.038 71.4228 100.038 70.452C100.038 69.4812 99.251 68.6942 98.2801 68.6942Z" fill="#D8EAEF"/>
</g>
<circle cx="154.021" cy="89.3011" r="10" fill="#0071FF"/>
<defs>
<linearGradient id="paint0_linear_32_194" x1="76.3768" y1="21.3137" x2="83.1572" y2="141.555" gradientUnits="userSpaceOnUse">
<stop stop-color="#B0D3FF"/>
<stop offset="0.632687" stop-color="#D8E9FF" stop-opacity="0.1"/>
<stop offset="1" stop-color="#D8E9FF" stop-opacity="0"/>
</linearGradient>
<clipPath id="clip0_32_194">
<rect width="60" height="60" fill="white" transform="translate(50 51)"/>
</clipPath>
</defs>
</svg>
