<svg width="164" height="162" viewBox="0 0 164 162" fill="none" xmlns="http://www.w3.org/2000/svg">
<circle cx="82.9743" cy="80.5764" r="73.5" transform="rotate(4.4361 82.9743 80.5764)" fill="white" stroke="url(#paint0_linear_32_88)" stroke-width="3"/>
<g clip-path="url(#clip0_32_88)">
<path d="M80.855 98.9999H57.9989C55.7898 98.9999 53.999 97.2091 53.999 95.0001V91H84.6971L80.855 98.9999Z" fill="#D3DCFB"/>
<path d="M106.003 67V83.8044V94.9998H57.9989C55.7898 94.9998 53.999 93.2089 53.999 90.9998V67L82.001 56.9999L106.003 67Z" fill="#EBF5FC"/>
<path d="M61.0629 75.0001H58.938C58.4203 75.0001 58.0005 74.5803 58.0005 74.0626V71.9376C58.0005 71.4199 58.4203 71.0001 58.938 71.0001H61.0629C61.5807 71.0001 62.0004 71.4199 62.0004 71.9376V74.0626C62.0004 74.5803 61.5807 75.0001 61.0629 75.0001Z" fill="#3C58A0"/>
<path d="M69.0629 75.0001H66.938C66.4203 75.0001 66.0005 74.5803 66.0005 74.0626V71.9376C66.0005 71.4199 66.4203 71.0001 66.938 71.0001H69.0629C69.5807 71.0001 70.0004 71.4199 70.0004 71.9376V74.0626C70.0004 74.5803 69.5807 75.0001 69.0629 75.0001Z" fill="#3C58A0"/>
<path d="M77.063 75.0001H74.938C74.4203 75.0001 74.0005 74.5803 74.0005 74.0626V71.9376C74.0005 71.4199 74.4203 71.0001 74.938 71.0001H77.063C77.5807 71.0001 78.0005 71.4199 78.0005 71.9376V74.0626C78.0005 74.5803 77.5808 75.0001 77.063 75.0001Z" fill="#3C58A0"/>
<path d="M85.0629 75.0001H82.938C82.4203 75.0001 82.0005 74.5803 82.0005 74.0626V71.9376C82.0005 71.4199 82.4203 71.0001 82.938 71.0001H85.0629C85.5807 71.0001 86.0004 71.4199 86.0004 71.9376V74.0626C86.0004 74.5803 85.5807 75.0001 85.0629 75.0001Z" fill="#3C58A0"/>
<path d="M93.0615 75.0001H90.9365C90.4188 75.0001 89.999 74.5803 89.999 74.0626V71.9376C89.999 71.4199 90.4188 71.0001 90.9365 71.0001H93.0615C93.5792 71.0001 93.999 71.4199 93.999 71.9376V74.0626C93.999 74.5803 93.5793 75.0001 93.0615 75.0001Z" fill="#3C58A0"/>
<path d="M101.061 75.0001H98.9365C98.4188 75.0001 97.999 74.5803 97.999 74.0626V71.9376C97.999 71.4199 98.4188 71.0001 98.9365 71.0001H101.061C101.579 71.0001 101.999 71.4199 101.999 71.9376V74.0626C101.999 74.5803 101.579 75.0001 101.061 75.0001Z" fill="#3C58A0"/>
<path d="M61.0629 83H58.938C58.4203 83 58.0005 82.5802 58.0005 82.0625V79.9375C58.0005 79.4198 58.4203 79 58.938 79H61.0629C61.5807 79 62.0004 79.4198 62.0004 79.9375V82.0625C62.0004 82.5803 61.5807 83 61.0629 83Z" fill="#3C58A0"/>
<path d="M69.0629 83H66.938C66.4203 83 66.0005 82.5802 66.0005 82.0625V79.9375C66.0005 79.4198 66.4203 79 66.938 79H69.0629C69.5807 79 70.0004 79.4198 70.0004 79.9375V82.0625C70.0004 82.5803 69.5807 83 69.0629 83Z" fill="#3C58A0"/>
<path d="M77.063 83H74.938C74.4203 83 74.0005 82.5802 74.0005 82.0625V79.9375C74.0005 79.4198 74.4203 79 74.938 79H77.063C77.5807 79 78.0005 79.4198 78.0005 79.9375V82.0625C78.0005 82.5803 77.5808 83 77.063 83Z" fill="#3C58A0"/>
<path d="M86.0004 83V80C86.0004 79.4477 85.5528 79 85.0005 79H83.0005C82.4481 79 82.0005 79.4477 82.0005 80V82C82.0005 82.5523 82.4483 83 83.0005 83H86.0004Z" fill="#3C58A0"/>
<path d="M61.0629 91.0001H58.938C58.4203 91.0001 58.0005 90.5803 58.0005 90.0626V87.9376C58.0005 87.4199 58.4203 87.0001 58.938 87.0001H61.0629C61.5807 87.0001 62.0004 87.4199 62.0004 87.9376V90.0626C62.0004 90.5803 61.5807 91.0001 61.0629 91.0001Z" fill="#3C58A0"/>
<path d="M69.0629 91.0001H66.938C66.4203 91.0001 66.0005 90.5803 66.0005 90.0626V87.9376C66.0005 87.4199 66.4203 87.0001 66.938 87.0001H69.0629C69.5807 87.0001 70.0004 87.4199 70.0004 87.9376V90.0626C70.0004 90.5803 69.5807 91.0001 69.0629 91.0001Z" fill="#3C58A0"/>
<path d="M77.063 91.0001H74.938C74.4203 91.0001 74.0005 90.5803 74.0005 90.0626V87.9376C74.0005 87.4199 74.4203 87.0001 74.938 87.0001H77.063C77.5807 87.0001 78.0005 87.4199 78.0005 87.9376V90.0626C78.0005 90.5803 77.5808 91.0001 77.063 91.0001Z" fill="#3C58A0"/>
<path d="M101.033 71H98.965C98.8398 71 98.7206 71.0246 98.6108 71.0679C98.9688 71.2092 99.2224 71.5575 99.2224 71.9657V74.0341C99.2224 74.4424 98.9687 74.7907 98.6108 74.932C98.7206 74.9754 98.8398 75 98.965 75H101.033C101.567 75 101.999 74.5675 101.999 74.0342V71.9659C101.999 71.4324 101.567 71 101.033 71Z" fill="#2A428C"/>
<path d="M93.0333 71H90.965C90.8398 71 90.7206 71.0246 90.6108 71.0679C90.9688 71.2092 91.2224 71.5575 91.2224 71.9657V74.0341C91.2224 74.4424 90.9687 74.7907 90.6108 74.932C90.7206 74.9754 90.8398 75 90.965 75H93.0333C93.5668 75 93.9991 74.5675 93.9991 74.0342V71.9659C93.9991 71.4324 93.5668 71 93.0333 71Z" fill="#2A428C"/>
<path d="M85.0346 71H82.9662C82.841 71 82.7219 71.0246 82.6121 71.0679C82.9701 71.2092 83.2238 71.5575 83.2238 71.9657V74.0341C83.2238 74.4424 82.9701 74.7907 82.6121 74.932C82.7219 74.9754 82.841 75 82.9662 75H85.0346C85.568 75 86.0004 74.5675 86.0004 74.0342V71.9659C86.0003 71.4324 85.5679 71 85.0346 71Z" fill="#2A428C"/>
<path d="M77.0346 71H74.9662C74.841 71 74.7219 71.0246 74.6121 71.0679C74.9701 71.2092 75.2238 71.5575 75.2238 71.9657V74.0341C75.2238 74.4424 74.9701 74.7907 74.6121 74.932C74.7219 74.9754 74.841 75 74.9662 75H77.0346C77.568 75 78.0004 74.5675 78.0004 74.0342V71.9659C78.0003 71.4324 77.568 71 77.0346 71Z" fill="#2A428C"/>
<path d="M69.0346 71H66.9662C66.841 71 66.7219 71.0246 66.6121 71.0679C66.9701 71.2092 67.2237 71.5575 67.2237 71.9657V74.0341C67.2237 74.4424 66.97 74.7907 66.6121 74.932C66.7219 74.9754 66.841 75 66.9662 75H69.0346C69.568 75 70.0004 74.5675 70.0004 74.0342V71.9659C70.0004 71.4324 69.568 71 69.0346 71Z" fill="#2A428C"/>
<path d="M61.0346 71H58.9662C58.841 71 58.7219 71.0246 58.6121 71.0679C58.9701 71.2092 59.2238 71.5575 59.2238 71.9657V74.0341C59.2238 74.4424 58.9701 74.7907 58.6121 74.932C58.7219 74.9754 58.841 75 58.9662 75H61.0346C61.568 75 62.0004 74.5675 62.0004 74.0342V71.9659C62.0003 71.4324 61.5679 71 61.0346 71Z" fill="#2A428C"/>
<path d="M61.0346 79H58.9662C58.841 79 58.7219 79.0246 58.6121 79.0679C58.9701 79.2092 59.2238 79.5575 59.2238 79.9657V82.0342C59.2238 82.4425 58.9701 82.7908 58.6121 82.9321C58.7219 82.9755 58.841 83.0001 58.9662 83.0001H61.0346C61.568 83.0001 62.0004 82.5677 62.0004 82.0343V79.9659C62.0003 79.4324 61.5679 79 61.0346 79Z" fill="#2A428C"/>
<path d="M61.0346 87H58.9662C58.841 87 58.7219 87.0246 58.6121 87.0679C58.9701 87.2092 59.2238 87.5575 59.2238 87.9657V90.0342C59.2238 90.4425 58.9701 90.7908 58.6121 90.9321C58.7219 90.9755 58.841 91.0001 58.9662 91.0001H61.0346C61.568 91.0001 62.0004 90.5677 62.0004 90.0343V87.9659C62.0003 87.4323 61.5679 87 61.0346 87Z" fill="#2A428C"/>
<path d="M69.0346 79H66.9662C66.841 79 66.7219 79.0246 66.6121 79.0679C66.9701 79.2092 67.2237 79.5575 67.2237 79.9657V82.0342C67.2237 82.4425 66.97 82.7908 66.6121 82.9321C66.7219 82.9755 66.841 83.0001 66.9662 83.0001H69.0346C69.568 83.0001 70.0004 82.5677 70.0004 82.0343V79.9659C70.0004 79.4324 69.568 79 69.0346 79Z" fill="#2A428C"/>
<path d="M69.0346 87H66.9662C66.841 87 66.7219 87.0246 66.6121 87.0679C66.9701 87.2092 67.2237 87.5575 67.2237 87.9657V90.0342C67.2237 90.4425 66.97 90.7908 66.6121 90.9321C66.7219 90.9755 66.841 91.0001 66.9662 91.0001H69.0346C69.568 91.0001 70.0004 90.5677 70.0004 90.0343V87.9659C70.0004 87.4323 69.568 87 69.0346 87Z" fill="#2A428C"/>
<path d="M77.0346 79H74.9662C74.841 79 74.7219 79.0246 74.6121 79.0679C74.9701 79.2092 75.2238 79.5575 75.2238 79.9657V82.0342C75.2238 82.4425 74.9701 82.7908 74.6121 82.9321C74.7219 82.9755 74.841 83.0001 74.9662 83.0001H77.0346C77.568 83.0001 78.0004 82.5677 78.0004 82.0343V79.9659C78.0003 79.4324 77.568 79 77.0346 79Z" fill="#2A428C"/>
<path d="M86.0004 83V79.9657C86.0004 79.4323 85.568 79 85.0346 79H82.9662C82.841 79 82.7219 79.0246 82.6121 79.0679C82.9701 79.2092 83.2238 79.5575 83.2238 79.9657V82.0342C83.2238 82.4425 82.9701 82.7908 82.6121 82.9321C82.7219 82.9755 82.841 83.0001 82.9662 83.0001H86.0004V83Z" fill="#2A428C"/>
<path d="M77.0346 87H74.9662C74.841 87 74.7219 87.0246 74.6121 87.0679C74.9701 87.2092 75.2238 87.5575 75.2238 87.9657V90.0342C75.2238 90.4425 74.9701 90.7908 74.6121 90.9321C74.7219 90.9755 74.841 91.0001 74.9662 91.0001H77.0346C77.568 91.0001 78.0004 90.5677 78.0004 90.0343V87.9659C78.0003 87.4323 77.568 87 77.0346 87Z" fill="#2A428C"/>
<path d="M103.224 65.8423V83.8044V94.9999H106.003V83.8044V67L103.224 65.8423Z" fill="#D3DCFB"/>
<path d="M106.003 67V57C106.003 54.7909 104.212 53.0001 102.003 53.0001H57.9989C55.7898 53.0001 53.999 54.7909 53.999 57V67H106.003Z" fill="#FF4155"/>
<path d="M66.6027 57.9054H63.9991C63.499 57.9054 63.0938 57.5 63.0938 57C63.0938 56.5 63.4991 56.0946 63.9991 56.0946H66.6027C67.1029 56.0946 67.5081 56.5 67.5081 57C67.5081 57.5 67.1027 57.9054 66.6027 57.9054Z" fill="#E80054"/>
<path d="M72.9989 57.9054H70.3954C69.8952 57.9054 69.49 57.5 69.49 57C69.49 56.5 69.8953 56.0946 70.3954 56.0946H72.9989C73.4991 56.0946 73.9043 56.5 73.9043 57C73.9043 57.5 73.4991 57.9054 72.9989 57.9054Z" fill="#E80054"/>
<path d="M89.604 57.9054H87.0004C86.5002 57.9054 86.095 57.5 86.095 57C86.095 56.5 86.5003 56.0946 87.0004 56.0946H89.604C90.1042 56.0946 90.5094 56.5 90.5094 57C90.5094 57.5 90.1042 57.9054 89.604 57.9054Z" fill="#E80054"/>
<path d="M96.0005 57.9054H93.3968C92.8967 57.9054 92.4915 57.5 92.4915 57C92.4915 56.5 92.8968 56.0946 93.3968 56.0946H96.0005C96.5007 56.0946 96.9059 56.5 96.9059 57C96.9059 57.5 96.5006 57.9054 96.0005 57.9054Z" fill="#E80054"/>
<path d="M70.9989 56.5C70.9989 57.8807 69.8797 59 68.499 59C67.1183 59 65.999 57.8807 65.999 56.5V51.5C65.9989 50.1193 67.1182 49 68.4989 49C69.8796 49 70.9988 50.1193 70.9988 51.5V56.5H70.9989Z" fill="#EBF5FC"/>
<path d="M94.0003 56.5C94.0003 57.8807 92.881 59 91.5003 59C90.1196 59 89.0002 57.8807 89.0002 56.5V51.5C89.0002 50.1193 90.1195 49 91.5002 49C92.8809 49 94.0002 50.1193 94.0002 51.5V56.5H94.0003Z" fill="#EBF5FC"/>
<path d="M91.5003 49C90.987 49 90.5103 49.1552 90.1133 49.4205C90.7842 49.8688 91.2263 50.6325 91.2263 51.5001V56.5C91.2263 57.3674 90.7842 58.1313 90.1133 58.5796C90.5102 58.8448 90.987 59.0001 91.5003 59.0001C92.881 59.0001 94.0003 57.8808 94.0003 56.5001V51.5C94.0004 50.1193 92.8811 49 91.5003 49V49Z" fill="#D3DCFB"/>
<path d="M68.4991 49C67.9858 49 67.5091 49.1552 67.1121 49.4205C67.783 49.8688 68.2251 50.6325 68.2251 51.5001V56.5C68.2251 57.3674 67.783 58.1313 67.1121 58.5796C67.509 58.8448 67.9858 59.0001 68.4991 59.0001C69.8798 59.0001 70.9991 57.8808 70.9991 56.5001V51.5C70.9992 50.1193 69.8799 49 68.4991 49V49Z" fill="#D3DCFB"/>
<path d="M102.003 53H99.2253C101.434 53 103.225 54.7907 103.225 56.9998V67H106.003V57C106.003 54.7909 104.212 53 102.003 53Z" fill="#E80054"/>
<path d="M53.999 62.0945H106.003V63.9054H53.999V62.0945Z" fill="#E80054"/>
<path d="M95.001 109C103.285 109 110.001 102.284 110.001 94C110.001 85.7157 103.285 79 95.001 79C86.7167 79 80.001 85.7157 80.001 94C80.001 102.284 86.7167 109 95.001 109Z" fill="#4FABF7"/>
<path d="M95.001 105C101.076 105 106.001 100.075 106.001 94C106.001 87.9249 101.076 83 95.001 83C88.9259 83 84.001 87.9249 84.001 94C84.001 100.075 88.9259 105 95.001 105Z" fill="#EBF5FC"/>
<path d="M95.0011 92.9053C94.5009 92.9053 94.0957 92.5 94.0957 91.9999V86.9999C94.0957 86.4998 94.5011 86.0945 95.0011 86.0945C95.5013 86.0945 95.9065 86.4998 95.9065 86.9999V91.9999C95.9065 92.5 95.5011 92.9053 95.0011 92.9053Z" fill="#3C58A0"/>
<path d="M100.001 94.9054H97.0008C96.5007 94.9054 96.0955 94.5 96.0955 94C96.0955 93.5 96.5008 93.0946 97.0008 93.0946H100.001C100.501 93.0946 100.906 93.5 100.906 94C100.906 94.5 100.501 94.9054 100.001 94.9054Z" fill="#3C58A0"/>
<path d="M95.001 79C94.5328 79 94.0699 79.0226 93.6127 79.0646C101.246 79.7652 107.224 86.1839 107.224 94C107.224 101.816 101.246 108.235 93.6125 108.935C94.0698 108.977 94.5327 109 95.0009 109C103.285 109 110.001 102.284 110.001 94C110.001 85.7158 103.285 79 95.001 79Z" fill="#1886EA"/>
<path d="M95.0012 83C94.5312 83 94.0682 83.0296 93.6138 83.0868C99.0339 83.769 103.226 88.3948 103.226 94C103.226 99.6052 99.0339 104.231 93.6138 104.913C94.0682 104.97 94.5312 105 95.0012 105C101.076 105 106.001 100.075 106.001 94C106.001 87.9249 101.076 83 95.0012 83Z" fill="#D3DCFB"/>
<path d="M95.001 96.0001C96.1056 96.0001 97.0011 95.1046 97.0011 94C97.0011 92.8954 96.1056 92 95.001 92C93.8964 92 93.001 92.8954 93.001 94C93.001 95.1046 93.8964 96.0001 95.001 96.0001Z" fill="#FFDD40"/>
</g>
<circle cx="10" cy="89.3011" r="10" fill="#0071FF"/>
<defs>
<linearGradient id="paint0_linear_32_88" x1="78.3768" y1="21.3137" x2="79.9941" y2="147.254" gradientUnits="userSpaceOnUse">
<stop stop-color="#B0D3FF"/>
<stop offset="0.632687" stop-color="#D8E9FF" stop-opacity="0.1"/>
<stop offset="1" stop-color="#D8E9FF" stop-opacity="0"/>
</linearGradient>
<clipPath id="clip0_32_88">
<rect width="60" height="60" fill="white" transform="translate(52 49)"/>
</clipPath>
</defs>
</svg>
